<svg xmlns="http://www.w3.org/2000/svg" xmlns:xlink="http://www.w3.org/1999/xlink" width="500" zoomAndPan="magnify" viewBox="0 0 375 374.999991" height="500" preserveAspectRatio="xMidYMid meet" version="1.0"><defs><clipPath id="53e5b433fb"><path d="M 36 37.5 L 338.996094 37.5 L 338.996094 348.75 L 36 348.75 Z M 36 37.5 " clip-rule="nonzero"/></clipPath></defs><g clip-path="url(#53e5b433fb)"><path fill="#ffffff" d="M 338.953125 190.65625 L 294.277344 190.65625 C 217.792969 174.105469 200.785156 157.039062 184.234375 80.4375 L 184.234375 37.503906 L 178.582031 37.503906 L 178.582031 80.890625 C 162.0625 157.105469 144.96875 174.140625 68.636719 190.65625 L 36.042969 190.65625 L 36.042969 196.308594 L 68.636719 196.308594 C 144.96875 212.828125 162.0625 229.859375 178.582031 306.078125 L 178.582031 348.664062 L 184.234375 348.664062 L 184.234375 306.527344 C 200.785156 229.929688 217.792969 212.863281 294.277344 196.308594 L 338.953125 196.308594 Z M 338.953125 190.65625 " fill-opacity="1" fill-rule="nonzero"/></g></svg>