<svg xmlns="http://www.w3.org/2000/svg" xmlns:xlink="http://www.w3.org/1999/xlink" width="500" zoomAndPan="magnify" viewBox="0 0 375 374.999991" height="500" preserveAspectRatio="xMidYMid meet" version="1.0"><defs><clipPath id="71a2568e37"><path d="M 60.171875 17.898438 L 161.027344 17.898438 L 161.027344 219.613281 L 60.171875 219.613281 Z M 60.171875 17.898438 " clip-rule="nonzero"/></clipPath><clipPath id="8f5a14b00d"><path d="M 245.335938 198.328125 L 324.847656 198.328125 L 324.847656 280.863281 L 245.335938 280.863281 Z M 245.335938 198.328125 " clip-rule="nonzero"/></clipPath><clipPath id="20086bbb9b"><path d="M 215.09375 114.960938 L 355.085938 114.960938 L 355.085938 156.640625 L 215.09375 156.640625 Z M 215.09375 114.960938 " clip-rule="nonzero"/></clipPath><clipPath id="4238d9f0b6"><path d="M 60.171875 190 L 211 190 L 211 343.769531 L 60.171875 343.769531 Z M 60.171875 190 " clip-rule="nonzero"/></clipPath></defs><g clip-path="url(#71a2568e37)"><path fill="#ff914d" d="M 60.171875 17.898438 L 161.027344 17.898438 L 161.027344 219.613281 L 60.171875 219.613281 Z M 60.171875 17.898438 " fill-opacity="1" fill-rule="nonzero"/></g><g clip-path="url(#8f5a14b00d)"><path fill="#8c52ff" d="M 245.335938 198.328125 L 324.847656 198.328125 L 324.847656 280.863281 L 245.335938 280.863281 Z M 245.335938 198.328125 " fill-opacity="1" fill-rule="nonzero"/></g><g clip-path="url(#20086bbb9b)"><path fill="#ffde59" d="M 215.09375 114.960938 L 355.085938 114.960938 L 355.085938 156.640625 L 215.09375 156.640625 Z M 215.09375 114.960938 " fill-opacity="1" fill-rule="nonzero"/></g><path fill="#000000" d="M 291.070312 171.570312 C 289.480469 169.21875 287.386719 167.121094 284.972656 165.597656 C 284.402344 165.214844 283.894531 164.898438 283.320312 164.578125 C 282.179688 163.945312 281.035156 163.246094 280.082031 162.355469 C 279.003906 161.402344 278.175781 160.195312 277.351562 158.984375 C 276.90625 158.285156 276.398438 157.652344 275.890625 156.953125 C 274.496094 155.234375 272.78125 153.773438 270.875 152.628906 C 270.492188 152.4375 270.113281 152.183594 269.730469 151.992188 C 268.652344 151.421875 267.699219 150.914062 266.875 150.148438 C 265.859375 149.195312 265.097656 147.609375 265.667969 146.210938 C 265.921875 145.574219 266.492188 145.066406 267.066406 144.554688 C 267.445312 144.238281 267.828125 143.855469 268.144531 143.414062 C 268.589844 142.902344 268.84375 142.269531 269.097656 141.695312 C 269.921875 141.570312 270.746094 141.316406 271.636719 140.996094 C 272.273438 140.742188 273.097656 140.296875 273.351562 139.597656 C 273.542969 139.28125 273.542969 138.898438 273.414062 138.519531 L 273.351562 138.390625 L 273.289062 138.328125 C 272.84375 138.007812 272.273438 137.820312 271.699219 137.945312 C 270.875 138.074219 269.921875 138.644531 269.414062 139.472656 C 269.097656 139.917969 268.84375 140.488281 268.589844 140.933594 C 266.113281 141.316406 263.761719 141.058594 261.855469 140.042969 C 262.238281 139.40625 262.492188 138.644531 262.367188 137.820312 C 262.300781 137.246094 262.367188 136.675781 262.429688 135.976562 C 262.554688 135.085938 262.683594 134.195312 262.367188 133.304688 C 262.113281 132.671875 261.730469 132.226562 261.347656 131.84375 C 259.824219 130.253906 257.667969 129.046875 254.617188 128.15625 C 253.664062 127.839844 252.714844 127.648438 251.824219 127.394531 C 250.363281 127.011719 248.839844 126.632812 247.378906 126.058594 C 246.488281 125.679688 245.539062 125.296875 244.648438 124.851562 C 242.234375 123.769531 239.757812 122.625 237.027344 122.691406 C 234.679688 122.753906 232.519531 123.769531 230.488281 124.722656 C 229.152344 125.359375 227.757812 125.996094 226.359375 126.378906 C 225.535156 126.632812 224.644531 126.757812 223.820312 126.886719 C 222.738281 127.078125 221.597656 127.265625 220.582031 127.585938 C 218.738281 128.21875 216.707031 129.683594 216.390625 131.90625 C 216.324219 132.351562 216.515625 132.605469 216.707031 132.734375 C 216.898438 132.859375 217.089844 132.859375 217.214844 132.859375 C 218.167969 132.734375 218.929688 132.035156 219.5 131.398438 C 219.628906 131.273438 219.753906 131.144531 219.882812 131.015625 C 221.34375 129.617188 223.3125 128.855469 225.34375 128.917969 C 226.996094 128.984375 228.582031 129.554688 230.234375 130.128906 C 231.695312 130.636719 233.152344 131.207031 234.742188 131.335938 C 235.949219 131.460938 237.15625 131.335938 238.296875 131.273438 C 239.886719 131.144531 241.347656 131.015625 242.808594 131.398438 C 244.457031 131.84375 245.917969 132.988281 247.316406 134.070312 L 247.824219 134.449219 C 249.472656 135.785156 251.316406 136.992188 253.476562 137.054688 C 253.792969 137.054688 254.109375 137.054688 254.492188 136.863281 C 255 136.609375 255.191406 136.101562 255.316406 135.59375 C 255.445312 135.59375 255.570312 135.59375 255.699219 135.65625 C 256.96875 135.785156 258.175781 135.910156 258.9375 136.738281 C 259.316406 137.183594 259.570312 137.753906 259.824219 138.390625 C 260.078125 139.027344 260.332031 139.726562 260.839844 140.171875 C 260.652344 140.425781 260.398438 140.617188 260.144531 140.804688 C 259.507812 141.316406 258.746094 141.632812 257.984375 142.015625 C 257.601562 142.203125 257.160156 142.394531 256.777344 142.585938 C 255 143.539062 253.476562 144.875 252.332031 146.527344 C 252.203125 146.652344 252.140625 146.84375 252.015625 146.972656 C 251.695312 147.480469 251.316406 147.988281 250.871094 148.371094 C 250.425781 148.75 249.601562 149.070312 249.03125 148.75 C 248.394531 148.433594 248.203125 147.609375 248.015625 146.78125 C 247.949219 146.589844 247.949219 146.398438 247.886719 146.273438 C 247.441406 144.492188 246.171875 142.96875 244.585938 142.078125 C 243.886719 141.695312 243.125 141.441406 242.363281 141.1875 C 241.789062 140.996094 241.21875 140.804688 240.648438 140.550781 C 240.519531 140.488281 240.457031 140.425781 240.328125 140.359375 C 240.265625 140.359375 240.265625 140.359375 240.203125 140.296875 C 240.140625 140.296875 240.074219 140.234375 240.011719 140.171875 C 239.820312 140.105469 239.695312 139.980469 239.503906 139.851562 C 239.503906 139.851562 239.441406 139.851562 239.441406 139.789062 C 239.378906 139.726562 239.25 139.726562 239.1875 139.726562 C 239.125 139.726562 238.996094 139.726562 238.933594 139.726562 C 237.664062 140.105469 236.265625 140.105469 234.804688 140.105469 C 233.34375 140.105469 231.882812 140.105469 230.421875 140.550781 C 229.726562 140.742188 229.027344 141.058594 228.328125 141.378906 C 228.011719 141.503906 227.628906 141.695312 227.3125 141.824219 C 226.804688 142.015625 226.167969 142.269531 225.660156 142.457031 C 223.757812 143.09375 221.789062 143.792969 220.582031 145.511719 C 220.390625 145.765625 220.199219 146.144531 220.199219 146.527344 C 220.199219 147.226562 220.707031 147.796875 221.660156 148.117188 C 222.929688 148.5625 224.265625 148.496094 225.597656 148.433594 C 225.789062 148.433594 226.042969 148.433594 226.234375 148.433594 C 227.503906 148.371094 229.152344 148.433594 230.234375 149.324219 C 230.613281 149.640625 230.996094 150.085938 231.3125 150.53125 C 231.695312 151.039062 232.136719 151.546875 232.644531 151.929688 C 233.089844 152.246094 233.535156 152.4375 233.980469 152.628906 C 234.105469 152.691406 234.234375 152.757812 234.359375 152.820312 C 235.25 153.203125 236.074219 153.710938 236.902344 154.21875 C 237.34375 154.472656 237.789062 154.789062 238.234375 155.042969 C 239.3125 155.679688 240.902344 156.441406 242.679688 156.507812 C 244.457031 156.507812 246.109375 155.554688 246.742188 154.21875 C 247.125 153.390625 247.0625 152.4375 246.617188 151.867188 C 246.425781 151.613281 246.109375 151.421875 245.855469 151.359375 C 245.855469 151.230469 245.855469 151.105469 245.855469 150.976562 C 245.472656 148.6875 244.710938 146.527344 243.570312 144.492188 C 243.1875 143.855469 242.742188 143.09375 242.042969 142.523438 C 241.09375 141.757812 239.757812 141.441406 238.234375 141.570312 C 236.964844 141.695312 235.695312 142.078125 234.550781 142.523438 L 225.46875 145.699219 C 225.214844 145.765625 224.328125 146.144531 224.011719 146.84375 C 223.882812 147.097656 223.882812 147.417969 224.011719 147.734375 L 224.011719 147.796875 C 223.3125 147.796875 222.550781 147.734375 221.914062 147.480469 C 221.46875 147.351562 221.023438 147.035156 221.023438 146.652344 C 221.023438 146.464844 221.152344 146.210938 221.28125 146.082031 C 222.296875 144.621094 224.074219 143.984375 225.914062 143.347656 C 226.488281 143.15625 227.058594 142.96875 227.628906 142.714844 C 228.011719 142.585938 228.328125 142.394531 228.710938 142.269531 C 229.34375 141.949219 229.980469 141.695312 230.675781 141.503906 C 232.011719 141.125 233.410156 141.125 234.804688 141.125 C 236.265625 141.125 237.789062 141.125 239.25 140.679688 C 239.441406 140.996094 239.820312 141.25 240.265625 141.441406 C 240.839844 141.695312 241.472656 141.886719 242.042969 142.140625 C 242.808594 142.394531 243.503906 142.648438 244.140625 142.96875 C 245.539062 143.730469 246.617188 145.128906 247.0625 146.652344 C 247.125 146.84375 247.125 146.972656 247.1875 147.164062 C 247.378906 148.117188 247.632812 149.132812 248.585938 149.640625 C 249.472656 150.148438 250.617188 149.769531 251.316406 149.132812 C 251.824219 148.6875 252.203125 148.117188 252.585938 147.542969 C 252.714844 147.417969 252.777344 147.226562 252.902344 147.097656 C 253.984375 145.574219 255.378906 144.300781 257.03125 143.414062 C 257.414062 143.222656 257.792969 143.03125 258.175781 142.839844 C 258.9375 142.457031 259.761719 142.078125 260.460938 141.570312 C 260.777344 141.378906 261.03125 141.125 261.285156 140.804688 C 261.285156 140.804688 261.285156 140.804688 261.347656 140.804688 C 263.316406 141.824219 265.605469 142.203125 268.082031 141.886719 C 267.890625 142.269531 267.699219 142.648438 267.445312 142.96875 C 267.128906 143.347656 266.8125 143.667969 266.429688 143.984375 C 265.792969 144.554688 265.222656 145.066406 264.84375 145.890625 C 264.078125 147.609375 264.96875 149.578125 266.175781 150.722656 C 267.066406 151.546875 268.144531 152.121094 269.222656 152.691406 C 269.605469 152.882812 269.984375 153.074219 270.367188 153.328125 C 272.207031 154.410156 273.859375 155.808594 275.191406 157.460938 C 275.699219 158.097656 276.207031 158.796875 276.652344 159.429688 C 277.480469 160.636719 278.367188 161.910156 279.511719 162.925781 C 280.527344 163.878906 281.734375 164.578125 282.875 165.214844 C 283.382812 165.53125 283.957031 165.851562 284.527344 166.167969 C 286.8125 167.695312 288.847656 169.664062 290.371094 171.953125 C 291.132812 173.097656 291.132812 174.75 290.371094 176.148438 C 289.671875 177.484375 288.402344 178.4375 287.320312 179.136719 C 287.703125 177.609375 287.511719 176.085938 286.878906 174.941406 C 285.734375 172.90625 283.320312 172.335938 282.050781 172.144531 C 281.035156 172.015625 280.019531 172.015625 279.003906 171.953125 C 278.242188 171.953125 277.414062 171.953125 276.589844 171.890625 C 275.066406 171.761719 273.414062 171.316406 271.636719 170.617188 C 271.128906 170.425781 270.683594 170.238281 270.304688 169.855469 C 270.175781 169.726562 270.050781 169.539062 269.984375 169.410156 L 274.683594 169.601562 C 275.320312 169.601562 276.082031 169.601562 276.589844 169.09375 C 276.90625 168.773438 277.035156 168.265625 276.90625 167.757812 C 276.78125 167.121094 276.273438 166.550781 275.699219 166.359375 C 274.75 165.976562 273.667969 166.359375 272.90625 166.613281 L 271 167.25 C 270.367188 167.441406 269.667969 167.757812 269.351562 168.394531 C 269.351562 168.457031 269.289062 168.519531 269.289062 168.585938 L 268.96875 168.585938 C 266.8125 168.519531 264.652344 168.519531 263.128906 169.984375 C 262.746094 170.363281 262.429688 170.746094 262.175781 171.191406 C 262.046875 171.316406 261.984375 171.445312 261.855469 171.636719 C 261.414062 172.207031 260.90625 172.78125 260.398438 173.351562 C 259.191406 174.6875 257.984375 176.019531 257.667969 177.800781 C 257.285156 180.027344 258.554688 182.441406 260.652344 183.457031 C 262.621094 184.410156 265.097656 184.09375 266.9375 182.824219 C 267.382812 183.457031 268.207031 183.777344 269.222656 183.585938 C 270.621094 183.394531 271.828125 182.566406 272.96875 181.871094 C 273.222656 181.742188 273.476562 181.550781 273.730469 181.425781 C 275.445312 180.34375 276.84375 180.027344 278.050781 180.40625 C 278.367188 180.535156 278.6875 180.660156 279.066406 180.851562 C 279.636719 181.171875 280.210938 181.425781 280.90625 181.488281 L 280.90625 182.378906 C 280.90625 182.632812 280.90625 183.011719 280.78125 183.203125 C 280.652344 183.394531 280.464844 183.585938 280.273438 183.710938 L 277.035156 186.445312 C 276.019531 187.273438 274.875 188.226562 274.175781 189.496094 C 273.542969 190.640625 273.097656 192.355469 273.921875 193.753906 C 274.304688 194.453125 275.128906 195.027344 275.953125 195.21875 C 276.71875 195.34375 277.414062 195.21875 277.921875 194.773438 L 278.113281 194.582031 L 278.050781 194.328125 C 277.734375 193.246094 277.542969 192.230469 277.859375 191.402344 C 278.113281 190.703125 278.75 190.257812 279.382812 189.6875 C 279.957031 189.179688 280.589844 188.671875 280.972656 187.972656 C 281.289062 187.398438 281.417969 186.699219 281.542969 186.0625 C 281.605469 185.554688 281.734375 185.109375 281.859375 184.730469 C 282.113281 184.09375 282.621094 183.457031 283.382812 182.824219 C 284.148438 182.1875 284.972656 181.679688 285.796875 181.171875 C 285.351562 181.996094 284.84375 182.757812 284.335938 183.457031 L 280.972656 188.417969 C 280.019531 189.816406 278.941406 191.402344 278.496094 193.183594 C 278.175781 194.390625 278.175781 195.597656 278.496094 196.679688 C 276.464844 196.234375 274.429688 195.917969 272.273438 195.917969 C 269.035156 195.980469 265.792969 196.996094 263.191406 198.839844 C 262.746094 199.160156 262.300781 199.476562 261.921875 199.792969 C 261.285156 200.304688 260.585938 200.8125 259.890625 201.257812 C 259 201.765625 257.601562 202.335938 256.207031 202.019531 C 256.140625 202.019531 256.015625 201.957031 255.953125 201.957031 C 255.570312 201.828125 255.125 201.703125 254.683594 201.828125 C 254.171875 201.957031 253.855469 202.335938 253.664062 202.84375 C 253.476562 203.480469 253.601562 204.242188 254.046875 204.753906 C 254.808594 205.578125 256.015625 205.707031 256.839844 205.769531 C 256.902344 206.40625 257.285156 206.914062 257.730469 207.230469 C 258.175781 207.550781 258.746094 207.675781 259.253906 207.804688 L 259.445312 207.867188 C 260.652344 208.183594 261.792969 208.628906 262.9375 209.136719 C 264.207031 209.648438 265.476562 210.15625 266.875 210.535156 C 267.128906 210.601562 267.445312 210.664062 267.699219 210.726562 C 267.574219 210.980469 267.445312 211.363281 267.507812 211.933594 C 267.828125 214.796875 269.984375 217.339844 272.78125 218.101562 L 272.96875 218.164062 C 273.351562 218.226562 273.667969 218.355469 273.859375 218.546875 C 274.175781 218.863281 274.175781 219.4375 274.175781 220.007812 L 274.175781 220.199219 C 274.242188 221.535156 274.558594 222.867188 275.128906 224.078125 C 275.382812 224.648438 275.953125 225.347656 276.652344 225.539062 C 276.78125 225.601562 276.90625 225.601562 277.035156 225.601562 C 277.289062 225.601562 277.480469 225.539062 277.734375 225.410156 C 278.242188 225.09375 278.367188 224.457031 278.496094 223.949219 L 278.558594 223.757812 C 278.8125 222.613281 279.511719 221.597656 280.210938 220.582031 C 280.527344 220.070312 280.90625 219.5625 281.226562 218.992188 C 281.226562 218.992188 281.226562 218.992188 281.289062 218.925781 C 281.480469 218.738281 281.605469 218.484375 281.671875 218.164062 C 282.8125 215.621094 282.496094 212.570312 280.90625 210.28125 C 280.84375 210.21875 280.78125 210.09375 280.71875 210.027344 C 280.589844 208.375 280.84375 206.660156 281.480469 205.132812 C 281.542969 204.941406 281.605469 204.816406 281.671875 204.625 C 281.925781 204.054688 282.179688 203.480469 282.242188 202.84375 C 282.367188 201.957031 282.179688 201.066406 281.859375 200.304688 C 281.859375 200.113281 281.859375 199.859375 281.796875 199.667969 C 281.542969 198.394531 281.035156 197.824219 279.890625 197.316406 C 279.828125 197.1875 279.703125 197.125 279.636719 197.0625 C 279.003906 195.851562 279.066406 194.390625 279.382812 193.246094 C 279.828125 191.59375 280.78125 190.132812 281.796875 188.734375 L 285.164062 183.777344 C 285.925781 182.695312 286.6875 181.550781 287.195312 180.28125 C 287.320312 180.214844 287.511719 180.089844 287.640625 180.027344 C 288.910156 179.261719 290.433594 178.117188 291.324219 176.464844 C 292.019531 174.941406 292.019531 173.035156 291.070312 171.570312 Z M 269.984375 140.105469 C 270.429688 139.472656 271.128906 139.027344 271.765625 138.960938 C 271.828125 138.960938 271.953125 138.960938 272.019531 138.960938 C 272.273438 138.960938 272.460938 139.027344 272.652344 139.152344 C 272.652344 139.28125 272.652344 139.40625 272.589844 139.472656 C 272.398438 139.851562 271.890625 140.234375 271.320312 140.425781 C 270.683594 140.617188 270.113281 140.804688 269.476562 140.933594 C 269.667969 140.617188 269.796875 140.359375 269.984375 140.105469 Z M 246.109375 152.566406 C 246.425781 152.945312 246.363281 153.582031 246.109375 154.027344 C 245.472656 155.300781 244.011719 155.871094 242.742188 155.871094 C 241.535156 155.871094 240.265625 155.425781 238.679688 154.535156 C 238.234375 154.28125 237.789062 154.027344 237.34375 153.710938 C 236.519531 153.203125 235.628906 152.628906 234.742188 152.246094 C 234.613281 152.183594 234.488281 152.121094 234.359375 152.058594 C 233.917969 151.867188 233.535156 151.675781 233.152344 151.421875 C 232.710938 151.105469 232.328125 150.660156 231.949219 150.148438 C 231.566406 149.707031 231.1875 149.195312 230.742188 148.816406 C 229.980469 148.242188 229.089844 147.925781 228.199219 147.863281 L 230.296875 147.734375 C 230.804688 147.734375 231.3125 147.671875 231.820312 147.796875 C 232.265625 147.925781 232.644531 148.179688 233.027344 148.433594 C 233.21875 148.5625 233.410156 148.6875 233.664062 148.816406 C 234.234375 149.132812 234.804688 149.324219 235.375 149.449219 C 236.203125 150.148438 237.28125 150.660156 238.363281 150.722656 C 238.742188 150.722656 239.125 150.722656 239.441406 150.722656 C 239.820312 150.722656 240.203125 150.660156 240.585938 150.722656 C 241.28125 150.785156 241.917969 151.039062 242.617188 151.292969 C 243.125 151.484375 243.695312 151.675781 244.265625 151.804688 C 244.394531 151.804688 244.519531 151.867188 244.585938 151.867188 C 245.28125 152.121094 245.792969 152.246094 246.109375 152.566406 Z M 242.996094 147.863281 C 243.316406 147.226562 243.441406 146.464844 243.378906 145.828125 C 244.265625 147.542969 244.902344 149.386719 245.15625 151.292969 C 245.09375 151.292969 244.964844 151.230469 244.902344 151.230469 C 244.773438 151.230469 244.710938 151.167969 244.585938 151.167969 C 244.078125 151.039062 243.570312 150.847656 243.0625 150.660156 C 242.363281 150.40625 241.601562 150.148438 240.839844 150.085938 C 240.394531 150.023438 240.011719 150.085938 239.566406 150.085938 C 239.1875 150.085938 238.871094 150.085938 238.550781 150.085938 C 238.171875 150.085938 237.851562 150.023438 237.535156 149.894531 C 238.171875 149.894531 238.804688 149.894531 239.378906 149.894531 C 239.949219 149.894531 240.519531 149.832031 241.027344 149.640625 C 241.855469 149.386719 242.550781 148.75 242.996094 147.863281 Z M 236.140625 143.285156 C 236.773438 142.839844 237.535156 142.648438 238.425781 142.648438 C 240.140625 142.648438 241.789062 143.667969 242.363281 145.066406 C 242.679688 145.828125 242.617188 146.78125 242.234375 147.542969 C 241.917969 148.242188 241.347656 148.75 240.710938 148.941406 C 240.265625 149.070312 239.820312 149.132812 239.3125 149.132812 C 238.171875 149.195312 236.964844 149.195312 235.820312 148.941406 C 235.375 148.496094 235.058594 148.050781 234.804688 147.480469 C 234.296875 145.953125 234.867188 144.113281 236.140625 143.285156 Z M 225.789062 146.652344 L 234.742188 143.539062 C 233.851562 144.683594 233.597656 146.335938 234.105469 147.734375 C 234.171875 147.988281 234.296875 148.242188 234.488281 148.496094 C 234.359375 148.433594 234.296875 148.371094 234.171875 148.308594 C 233.980469 148.179688 233.789062 148.050781 233.597656 147.925781 C 233.152344 147.609375 232.710938 147.351562 232.203125 147.164062 C 231.820312 147.035156 231.441406 147.035156 231.058594 147.035156 C 230.867188 147.035156 230.613281 147.035156 230.421875 147.035156 L 224.835938 147.289062 C 224.898438 147.097656 225.34375 146.84375 225.789062 146.652344 Z M 261.601562 136.039062 C 261.476562 136.738281 261.414062 137.4375 261.539062 138.074219 C 261.601562 138.644531 261.476562 139.21875 261.222656 139.660156 C 260.90625 139.28125 260.714844 138.773438 260.460938 138.199219 C 260.207031 137.5 259.890625 136.863281 259.378906 136.292969 C 258.429688 135.277344 256.96875 135.085938 255.632812 134.957031 C 255.445312 134.957031 255.316406 134.894531 255.125 134.894531 C 254.871094 133.371094 253.917969 132.097656 253.222656 131.273438 C 249.917969 127.585938 245.28125 125.679688 241.09375 126.378906 C 240.265625 126.503906 239.441406 127.011719 239.566406 127.839844 C 239.632812 128.285156 239.949219 128.539062 240.203125 128.730469 C 241.535156 129.683594 243.1875 129.875 244.773438 130.0625 C 246.488281 130.253906 248.140625 130.382812 249.21875 131.527344 C 249.539062 131.84375 249.792969 132.226562 250.046875 132.671875 C 250.300781 133.050781 250.554688 133.496094 250.871094 133.8125 C 251.886719 134.957031 253.285156 135.402344 254.363281 135.59375 C 254.300781 135.910156 254.238281 136.164062 253.984375 136.292969 C 253.792969 136.355469 253.601562 136.421875 253.347656 136.355469 C 251.441406 136.292969 249.726562 135.148438 248.140625 133.941406 L 247.632812 133.558594 C 246.171875 132.414062 244.710938 131.207031 242.871094 130.761719 C 241.28125 130.316406 239.632812 130.507812 238.105469 130.636719 C 236.964844 130.761719 235.820312 130.828125 234.742188 130.699219 C 233.28125 130.574219 231.820312 130 230.421875 129.492188 C 228.773438 128.917969 227.121094 128.285156 225.34375 128.21875 C 223.121094 128.15625 220.898438 128.984375 219.3125 130.507812 C 219.183594 130.636719 219.058594 130.761719 218.929688 130.890625 C 218.359375 131.460938 217.851562 131.972656 217.152344 132.097656 C 217.40625 130.253906 219.246094 128.984375 220.835938 128.410156 C 221.851562 128.09375 222.929688 127.902344 223.945312 127.710938 C 224.835938 127.585938 225.722656 127.394531 226.550781 127.203125 C 228.011719 126.820312 229.40625 126.121094 230.804688 125.488281 C 232.898438 124.535156 234.867188 123.582031 237.027344 123.515625 C 239.566406 123.453125 241.855469 124.46875 244.265625 125.613281 C 245.15625 126.058594 246.109375 126.441406 247.0625 126.820312 C 248.523438 127.394531 250.109375 127.777344 251.570312 128.21875 C 252.457031 128.476562 253.410156 128.730469 254.363281 128.984375 C 257.285156 129.875 259.316406 131.015625 260.777344 132.480469 C 261.09375 132.796875 261.414062 133.179688 261.601562 133.6875 C 261.855469 134.449219 261.730469 135.277344 261.601562 136.039062 Z M 254.238281 134.894531 C 253.285156 134.703125 252.140625 134.324219 251.378906 133.433594 C 251.125 133.113281 250.871094 132.734375 250.617188 132.351562 C 250.363281 131.90625 250.046875 131.460938 249.726562 131.082031 C 248.457031 129.746094 246.554688 129.554688 244.773438 129.363281 C 243.1875 129.175781 241.726562 129.046875 240.585938 128.21875 C 240.394531 128.09375 240.265625 127.964844 240.265625 127.839844 C 240.203125 127.585938 240.710938 127.332031 241.15625 127.265625 C 241.664062 127.203125 242.234375 127.140625 242.742188 127.140625 C 246.234375 127.140625 249.855469 128.855469 252.523438 131.90625 C 253.539062 132.988281 254.046875 133.941406 254.238281 134.894531 Z M 271.320312 168.140625 L 273.222656 167.503906 C 274.050781 167.25 274.8125 166.996094 275.511719 167.25 C 275.828125 167.375 276.144531 167.695312 276.207031 168.074219 C 276.273438 168.265625 276.273438 168.457031 276.082031 168.648438 C 275.828125 168.902344 275.320312 168.902344 274.8125 168.902344 L 270.175781 168.710938 C 270.429688 168.457031 270.875 168.265625 271.320312 168.140625 Z M 279.449219 220.070312 C 278.75 221.152344 277.988281 222.234375 277.667969 223.503906 L 277.605469 223.695312 C 277.542969 224.078125 277.414062 224.519531 277.160156 224.648438 C 277.035156 224.710938 276.90625 224.777344 276.78125 224.710938 C 276.398438 224.585938 275.953125 224.203125 275.765625 223.695312 C 275.257812 222.613281 274.9375 221.34375 274.875 220.136719 L 274.875 220.007812 C 274.875 219.308594 274.8125 218.546875 274.304688 218.039062 C 273.921875 217.65625 273.476562 217.527344 273.035156 217.464844 L 272.84375 217.402344 C 270.367188 216.703125 268.460938 214.476562 268.144531 211.933594 C 268.144531 211.746094 268.082031 211.171875 268.335938 211.046875 C 268.398438 211.046875 268.398438 210.980469 268.460938 210.980469 C 268.714844 211.046875 268.90625 211.046875 269.160156 211.109375 C 269.414062 211.171875 269.667969 211.171875 269.859375 211.234375 C 273.035156 212.125 275.445312 214.921875 277.542969 217.910156 C 277.988281 218.484375 278.558594 219.246094 279.449219 219.5 C 279.574219 219.5 279.636719 219.5625 279.765625 219.5625 C 279.765625 219.625 279.574219 219.816406 279.449219 220.070312 Z M 280.464844 218.417969 C 280.273438 218.609375 279.957031 218.671875 279.703125 218.609375 C 279.128906 218.484375 278.75 217.972656 278.242188 217.339844 C 276.84375 215.429688 275.320312 213.523438 273.542969 212.191406 C 276.207031 213.398438 278.367188 215.558594 280.335938 217.527344 C 280.464844 217.65625 280.652344 217.847656 280.652344 217.972656 C 280.652344 217.972656 280.652344 217.972656 280.652344 218.039062 C 280.652344 218.101562 280.589844 218.292969 280.464844 218.417969 Z M 281.035156 217.085938 C 280.972656 217.019531 280.972656 216.957031 280.90625 216.957031 C 278.683594 214.667969 276.144531 212.125 272.84375 211.046875 C 271.953125 210.726562 271.066406 210.535156 270.113281 210.410156 C 269.796875 210.347656 269.414062 210.21875 269.097656 210.15625 C 268.90625 210.15625 268.714844 210.09375 268.523438 210.09375 C 267.953125 210.027344 267.445312 209.902344 266.875 209.773438 C 265.605469 209.457031 264.269531 208.949219 263.0625 208.4375 C 261.921875 207.996094 260.714844 207.484375 259.507812 207.167969 L 259.316406 207.105469 C 258.871094 206.976562 258.429688 206.851562 258.046875 206.597656 C 257.792969 206.40625 257.539062 206.085938 257.476562 205.769531 C 259 205.769531 260.585938 205.578125 262.046875 205.324219 C 264.078125 205.070312 266.238281 204.753906 268.335938 205.007812 C 272.589844 205.515625 276.207031 207.996094 279.890625 210.792969 L 280.273438 211.109375 C 281.417969 212.890625 281.671875 215.113281 281.035156 217.085938 Z M 281.351562 202.78125 C 281.289062 203.289062 281.035156 203.800781 280.84375 204.371094 C 280.78125 204.5625 280.71875 204.6875 280.652344 204.878906 C 280.082031 206.214844 279.828125 207.675781 279.765625 209.136719 C 279.195312 208.566406 278.621094 208.058594 278.050781 207.550781 C 277.160156 206.722656 276.273438 205.960938 275.574219 205.070312 C 276.082031 205.070312 276.589844 205.007812 277.097656 204.941406 C 278.113281 204.816406 279.511719 204.5 280.527344 203.480469 C 280.90625 203.101562 281.226562 202.65625 281.417969 202.210938 C 281.417969 202.335938 281.417969 202.589844 281.351562 202.78125 Z M 279.449219 198.523438 C 280.019531 199.160156 280.589844 199.792969 280.972656 200.558594 C 280.972656 201.445312 280.589844 202.273438 279.957031 202.84375 C 279.320312 203.480469 278.304688 203.863281 276.90625 204.054688 C 276.273438 204.117188 275.636719 204.179688 275.003906 204.242188 C 274.875 203.988281 274.75 203.734375 274.683594 203.480469 C 274.621094 203.289062 274.558594 203.101562 274.496094 202.84375 C 274.304688 202.210938 274.175781 201.574219 273.667969 201.066406 C 273.222656 200.558594 272.527344 200.304688 271.953125 200.113281 C 271.253906 199.921875 270.367188 199.667969 269.476562 199.921875 C 268.652344 200.113281 267.761719 200.875 267.699219 201.828125 C 267.636719 202.972656 268.652344 203.925781 270.304688 204.371094 C 271.636719 204.753906 273.097656 204.941406 274.496094 204.941406 C 275.257812 206.152344 276.335938 207.039062 277.351562 207.996094 C 274.496094 206.085938 271.636719 204.5625 268.335938 204.179688 C 267.761719 204.117188 267.191406 204.054688 266.554688 204.054688 C 264.96875 204.054688 263.382812 204.242188 261.855469 204.5 C 261.347656 204.5625 260.839844 204.625 260.332031 204.6875 C 260.207031 204.625 260.015625 204.5625 259.824219 204.433594 C 259.316406 204.179688 258.808594 203.925781 258.300781 203.925781 C 257.730469 203.988281 257.09375 204.308594 256.777344 204.816406 C 256.714844 204.816406 256.714844 204.816406 256.648438 204.816406 C 255.953125 204.816406 254.9375 204.6875 254.363281 204.054688 C 254.109375 203.800781 254.046875 203.289062 254.109375 202.910156 C 254.171875 202.71875 254.300781 202.464844 254.554688 202.402344 C 254.808594 202.335938 255.125 202.402344 255.445312 202.527344 C 255.570312 202.527344 255.632812 202.589844 255.761719 202.589844 C 257.414062 202.972656 258.9375 202.335938 260.015625 201.703125 C 260.777344 201.257812 261.476562 200.746094 262.175781 200.238281 C 262.621094 199.921875 263 199.605469 263.445312 199.285156 C 265.984375 197.570312 269.03125 196.550781 272.144531 196.488281 C 274.367188 196.425781 276.398438 196.871094 278.558594 197.316406 C 278.621094 197.378906 278.6875 197.441406 278.8125 197.507812 C 279.066406 198.015625 279.257812 198.269531 279.449219 198.523438 Z M 274.175781 204.242188 C 272.96875 204.179688 271.765625 203.988281 270.621094 203.671875 C 269.605469 203.417969 268.523438 202.78125 268.589844 201.890625 C 268.589844 201.320312 269.222656 200.8125 269.730469 200.683594 C 269.921875 200.621094 270.113281 200.621094 270.304688 200.621094 C 270.8125 200.621094 271.320312 200.746094 271.765625 200.875 C 272.207031 201.003906 272.78125 201.257812 273.097656 201.574219 C 273.414062 201.890625 273.605469 202.464844 273.730469 203.035156 C 273.796875 203.226562 273.859375 203.480469 273.921875 203.671875 C 274.050781 203.925781 274.113281 204.117188 274.175781 204.242188 Z M 279.449219 180.089844 C 279.066406 179.898438 278.683594 179.707031 278.304688 179.582031 C 276.90625 179.136719 275.320312 179.515625 273.351562 180.726562 C 273.097656 180.851562 272.84375 181.042969 272.589844 181.171875 C 271.507812 181.871094 270.367188 182.570312 269.097656 182.757812 C 268.523438 182.824219 267.828125 182.757812 267.574219 182.3125 C 267.574219 182.3125 267.574219 182.25 267.507812 182.25 C 267.953125 181.871094 268.269531 181.488281 268.652344 181.042969 C 268.90625 180.789062 269.160156 180.472656 269.414062 180.214844 C 270.9375 178.753906 272.78125 177.675781 274.621094 176.59375 C 275.066406 176.339844 275.445312 176.085938 275.890625 175.957031 C 276.273438 175.832031 276.589844 175.832031 276.972656 175.765625 C 278.050781 175.894531 279.003906 176.210938 279.574219 176.464844 C 279.890625 176.59375 280.273438 176.785156 280.464844 177.039062 C 280.78125 177.417969 280.78125 177.992188 280.78125 178.5625 L 280.71875 180.535156 C 280.398438 180.597656 279.957031 180.34375 279.449219 180.089844 Z M 272.273438 177.230469 C 272.335938 177.164062 272.460938 177.039062 272.527344 176.976562 C 273.035156 176.53125 273.667969 176.210938 274.304688 176.019531 C 273.605469 176.402344 272.96875 176.785156 272.273438 177.230469 Z M 286.496094 179.582031 C 286.433594 179.707031 286.433594 179.773438 286.371094 179.898438 C 286.179688 180.027344 286.050781 180.089844 285.859375 180.214844 C 284.84375 180.851562 283.765625 181.425781 282.875 182.25 C 282.050781 182.949219 281.480469 183.710938 281.160156 184.476562 C 280.972656 184.984375 280.84375 185.492188 280.78125 186 C 280.652344 186.574219 280.589844 187.144531 280.273438 187.652344 C 279.957031 188.226562 279.449219 188.671875 278.875 189.117188 C 278.175781 189.6875 277.480469 190.257812 277.160156 191.085938 C 276.71875 192.167969 276.972656 193.3125 277.226562 194.265625 C 276.90625 194.453125 276.527344 194.519531 276.082031 194.390625 C 275.445312 194.265625 274.875 193.882812 274.558594 193.3125 C 273.921875 192.167969 274.304688 190.769531 274.8125 189.816406 C 275.445312 188.671875 276.527344 187.84375 277.480469 187.019531 L 280.71875 184.285156 C 280.972656 184.09375 281.226562 183.839844 281.417969 183.523438 C 281.605469 183.140625 281.605469 182.695312 281.671875 182.3125 L 281.671875 181.296875 C 282.6875 180.914062 283.449219 179.773438 283.320312 178.5625 C 283.195312 177.417969 282.367188 176.402344 281.160156 175.765625 C 280.082031 175.195312 278.8125 175.132812 277.859375 175.066406 C 277.605469 175.066406 277.351562 175.066406 277.160156 175.066406 C 275.511719 174.878906 273.542969 175.003906 272.019531 176.339844 C 271.636719 176.71875 271.253906 177.101562 270.9375 177.546875 C 270.558594 177.992188 270.175781 178.4375 269.730469 178.816406 C 269.476562 179.007812 269.160156 179.199219 268.777344 179.390625 C 268.398438 179.582031 267.953125 179.835938 267.636719 180.152344 C 267.066406 180.597656 266.683594 181.359375 266.683594 182.058594 C 266.683594 182.058594 266.621094 182.125 266.621094 182.125 C 264.96875 183.332031 262.746094 183.648438 261.03125 182.824219 C 259.253906 181.933594 258.109375 179.898438 258.492188 177.992188 C 258.808594 176.402344 259.890625 175.195312 261.03125 173.921875 C 261.539062 173.351562 262.046875 172.78125 262.554688 172.144531 C 262.683594 172.015625 262.746094 171.890625 262.875 171.699219 C 263.128906 171.316406 263.445312 170.9375 263.761719 170.617188 C 265.03125 169.410156 267.066406 169.410156 269.03125 169.472656 L 269.351562 169.472656 C 269.414062 169.855469 269.605469 170.238281 269.921875 170.554688 C 270.367188 171 270.9375 171.253906 271.507812 171.507812 C 273.351562 172.207031 275.066406 172.652344 276.652344 172.84375 C 277.480469 172.90625 278.304688 172.90625 279.128906 172.90625 C 280.082031 172.90625 281.097656 172.90625 282.050781 173.035156 C 284.019531 173.289062 285.605469 174.179688 286.304688 175.449219 C 286.878906 176.53125 287.003906 178.054688 286.496094 179.582031 Z M 281.417969 176.847656 C 282.050781 177.355469 282.496094 177.992188 282.558594 178.628906 C 282.621094 179.261719 282.304688 180.027344 281.734375 180.40625 L 281.796875 178.691406 C 281.796875 178.183594 281.796875 177.417969 281.417969 176.847656 Z M 281.417969 176.847656 " fill-opacity="1" fill-rule="nonzero"/><path fill="#000000" d="M 204.007812 337.09375 L 203.246094 336.839844 C 204.960938 331.882812 209.53125 328.957031 213.976562 326.097656 C 218.167969 323.429688 222.484375 320.632812 224.328125 316.183594 C 224.898438 314.785156 225.152344 313.320312 225.46875 311.859375 C 225.789062 310.207031 226.105469 308.492188 226.867188 306.902344 C 227.628906 305.25 228.773438 303.851562 229.914062 302.453125 C 230.421875 301.878906 230.867188 301.242188 231.375 300.609375 C 233.027344 298.382812 233.726562 296.347656 233.597656 294.507812 C 232.835938 295.648438 231.882812 296.667969 230.675781 297.304688 C 229.152344 298.128906 227.183594 298.257812 225.597656 297.558594 C 224.328125 297.046875 223.5 296.09375 223.183594 294.886719 C 222.613281 292.664062 224.136719 290.4375 226.042969 289.546875 C 227.566406 288.847656 229.472656 288.914062 231.121094 289.738281 C 232.390625 290.375 233.34375 291.328125 233.917969 292.472656 C 234.296875 291.710938 234.613281 290.882812 234.933594 290.121094 C 237.027344 284.71875 238.363281 278.996094 238.871094 273.210938 C 238.933594 272.832031 238.933594 272.386719 238.996094 272.003906 C 239.125 270.097656 239.3125 268.191406 239.886719 266.347656 C 241.027344 262.597656 243.824219 259.164062 247.695312 256.9375 C 251 255.03125 254.933594 253.953125 259.570312 253.761719 C 260.652344 253.699219 261.730469 253.699219 262.746094 253.699219 C 266.300781 253.699219 269.984375 253.632812 273.035156 251.980469 C 274.429688 251.21875 275.636719 250.203125 276.71875 249.121094 C 278.558594 247.40625 280.78125 245.050781 282.179688 242.253906 C 283.574219 239.394531 283.765625 236.34375 282.75 233.863281 C 282.179688 232.53125 281.289062 231.324219 280.398438 230.113281 C 279.195312 228.460938 277.921875 226.808594 277.542969 224.777344 L 278.304688 224.648438 C 278.621094 226.492188 279.765625 228.015625 280.972656 229.671875 C 281.859375 230.878906 282.8125 232.148438 283.449219 233.609375 C 284.527344 236.28125 284.273438 239.585938 282.8125 242.636719 C 281.417969 245.5625 279.066406 247.976562 277.226562 249.757812 C 276.082031 250.835938 274.8125 251.917969 273.351562 252.679688 C 270.113281 254.460938 266.367188 254.460938 262.683594 254.460938 C 261.667969 254.460938 260.585938 254.460938 259.507812 254.523438 C 255.0625 254.714844 251.1875 255.796875 248.015625 257.574219 C 244.394531 259.671875 241.664062 262.914062 240.585938 266.539062 C 240.074219 268.316406 239.886719 270.222656 239.757812 272.066406 C 239.695312 272.449219 239.695312 272.894531 239.632812 273.277344 C 239.058594 279.125 237.726562 284.90625 235.628906 290.375 C 235.25 291.390625 234.804688 292.472656 234.234375 293.425781 C 234.234375 293.488281 234.296875 293.550781 234.296875 293.679688 C 234.742188 295.90625 234.042969 298.382812 232.074219 301.054688 C 231.628906 301.6875 231.121094 302.324219 230.613281 302.898438 C 229.535156 304.230469 228.390625 305.628906 227.691406 307.15625 C 226.996094 308.679688 226.675781 310.332031 226.359375 311.921875 C 226.042969 313.386719 225.789062 314.972656 225.214844 316.371094 C 223.3125 321.078125 218.867188 323.9375 214.546875 326.671875 C 209.914062 329.65625 205.65625 332.390625 204.007812 337.09375 Z M 228.074219 289.867188 C 227.375 289.867188 226.742188 289.992188 226.167969 290.246094 C 224.582031 290.945312 223.3125 292.851562 223.757812 294.632812 C 224.011719 295.585938 224.707031 296.347656 225.722656 296.792969 C 227.121094 297.367188 228.835938 297.304688 230.105469 296.605469 C 231.441406 295.839844 232.457031 294.695312 233.21875 293.363281 C 232.773438 292.152344 231.820312 291.074219 230.550781 290.4375 C 229.789062 290.054688 228.964844 289.867188 228.074219 289.867188 Z M 228.074219 289.867188 " fill-opacity="1" fill-rule="nonzero"/><path fill="#000000" d="M 234.933594 273.339844 C 233.597656 273.339844 232.457031 272.894531 231.628906 272.066406 C 230.929688 271.367188 230.488281 270.542969 230.105469 269.714844 C 228.898438 267.238281 227.882812 264.628906 226.867188 262.089844 C 224.898438 256.9375 222.867188 251.664062 219.121094 247.660156 C 215.375 243.652344 210.101562 241.175781 205.023438 239.140625 C 201.59375 237.742188 197.59375 235.328125 198.355469 231.703125 C 198.863281 229.414062 201.085938 228.144531 203.371094 227.761719 L 189.910156 221.851562 C 186.925781 220.515625 183.558594 219.054688 181.144531 216.511719 C 178.035156 213.144531 176.953125 208.566406 175.9375 204.179688 C 175.746094 203.355469 175.558594 202.589844 175.367188 201.828125 C 174.859375 199.667969 174.160156 197.441406 172.699219 195.726562 C 172.382812 195.34375 171.9375 195.28125 171.621094 195.28125 C 170.984375 195.34375 170.351562 195.726562 169.96875 196.296875 C 169.714844 196.742188 169.460938 197.25 169.269531 197.761719 C 168.890625 198.585938 168.507812 199.414062 167.875 200.113281 C 166.03125 202.019531 162.984375 201.828125 160.699219 200.746094 C 159.492188 200.175781 158.347656 199.347656 157.269531 198.585938 C 156.441406 197.949219 155.554688 197.316406 154.664062 196.808594 C 153.140625 195.917969 151.363281 195.34375 149.648438 194.835938 C 148.1875 194.328125 146.601562 193.882812 145.203125 193.121094 C 140.125 190.578125 136.757812 185.683594 133.898438 180.789062 C 130.597656 175.066406 127.359375 168.265625 128.691406 161.402344 C 129.582031 156.699219 132.820312 152.628906 136.882812 151.105469 C 141.328125 149.386719 146.726562 150.785156 149.332031 154.410156 C 150.03125 155.425781 150.601562 156.507812 151.109375 157.585938 C 151.425781 158.222656 151.679688 158.859375 152.0625 159.496094 C 152.761719 160.703125 153.585938 161.910156 154.476562 163.117188 C 156.378906 165.722656 158.285156 168.394531 158.285156 171.382812 C 158.539062 171.382812 158.730469 171.382812 158.984375 171.445312 C 160.191406 171.636719 161.140625 172.269531 161.585938 173.222656 C 161.90625 173.921875 162.03125 174.75 162.03125 175.511719 C 164.636719 175.765625 167.492188 174.8125 168.636719 172.460938 C 169.144531 171.382812 169.269531 170.109375 169.335938 168.902344 C 169.335938 168.394531 169.335938 167.886719 169.398438 167.375 C 169.460938 163.691406 169.589844 159.496094 172.445312 156.953125 C 174.605469 155.042969 177.652344 154.726562 180.574219 154.472656 C 183.75 154.15625 186.796875 153.902344 188.574219 151.675781 C 189.65625 150.339844 190.097656 148.433594 190.542969 146.652344 C 191.179688 144.113281 191.75 141.503906 194.164062 140.359375 C 195.5625 139.726562 197.085938 139.917969 198.609375 140.042969 C 199.6875 140.171875 200.832031 140.296875 201.847656 140.042969 C 205.65625 139.28125 207.183594 134.386719 206.925781 129.875 C 206.863281 128.03125 206.609375 125.933594 205.46875 124.28125 C 203.753906 121.738281 200.386719 120.847656 197.339844 120.273438 C 194.164062 119.703125 190.480469 119.195312 186.925781 119.894531 C 183.179688 120.65625 180.128906 122.625 178.605469 125.359375 C 177.460938 127.394531 177.144531 129.875 176.828125 132.226562 C 176.699219 133.050781 176.636719 133.941406 176.445312 134.769531 C 175.492188 140.296875 172.761719 144.683594 168.953125 146.84375 C 166.859375 147.988281 163.554688 148.117188 160.125 147.097656 C 156.761719 146.082031 154.09375 144.238281 153.015625 142.203125 C 151.300781 138.960938 148.824219 126.632812 153.269531 117.921875 L 153.964844 118.304688 C 149.394531 127.332031 152.507812 139.535156 153.710938 141.886719 C 154.664062 143.730469 157.207031 145.445312 160.378906 146.398438 C 163.617188 147.351562 166.730469 147.289062 168.636719 146.210938 C 172.253906 144.175781 174.859375 139.980469 175.746094 134.703125 C 175.875 133.878906 176.003906 133.050781 176.128906 132.226562 C 176.445312 129.808594 176.765625 127.265625 177.96875 125.105469 C 179.621094 122.117188 182.859375 120.019531 186.796875 119.195312 C 190.480469 118.496094 194.289062 118.941406 197.464844 119.574219 C 200.703125 120.148438 204.195312 121.101562 206.101562 123.898438 C 207.371094 125.742188 207.625 127.964844 207.691406 129.9375 C 207.945312 134.769531 206.230469 139.980469 201.972656 140.871094 C 200.832031 141.125 199.625 140.996094 198.480469 140.871094 C 197.019531 140.679688 195.6875 140.550781 194.480469 141.125 C 192.449219 142.078125 191.878906 144.367188 191.304688 146.84375 C 190.863281 148.75 190.355469 150.722656 189.210938 152.183594 C 187.179688 154.664062 183.875 154.980469 180.636719 155.300781 C 177.84375 155.554688 174.921875 155.808594 172.953125 157.585938 C 170.351562 159.875 170.285156 163.753906 170.160156 167.441406 C 170.160156 167.949219 170.160156 168.457031 170.097656 168.964844 C 170.03125 170.238281 169.90625 171.636719 169.335938 172.84375 C 168.0625 175.449219 164.953125 176.59375 162.09375 176.339844 C 162.160156 177.101562 162.285156 177.863281 162.730469 178.375 C 163.238281 179.007812 164.128906 179.261719 165.015625 179.515625 C 165.207031 179.582031 165.332031 179.582031 165.523438 179.644531 C 167.9375 180.34375 169.84375 181.804688 170.605469 183.648438 C 171.113281 184.792969 171.113281 186.191406 170.667969 187.398438 C 170.285156 188.417969 169.523438 189.179688 168.636719 189.558594 C 166.09375 190.640625 163.492188 188.734375 161.777344 186.953125 L 161.714844 186.890625 C 160.0625 185.238281 158.15625 183.332031 155.933594 183.523438 C 155.238281 183.585938 154.601562 183.839844 153.902344 184.15625 C 153.777344 185.109375 153.523438 186 153.015625 186.761719 C 151.363281 189.242188 147.808594 189.496094 145.332031 188.289062 C 142.726562 187.019531 141.011719 184.476562 139.804688 182.378906 C 138.21875 179.644531 136.882812 176.71875 135.933594 173.734375 C 135.613281 172.78125 135.234375 171.570312 135.296875 170.425781 C 135.359375 168.964844 136.058594 167.628906 137.265625 166.613281 C 138.789062 165.277344 141.011719 164.578125 143.109375 164.769531 C 145.203125 164.960938 147.042969 165.851562 148.824219 166.996094 C 149.011719 166.929688 149.265625 166.867188 149.457031 166.804688 C 150.539062 166.550781 151.554688 166.742188 152.316406 167.3125 L 152.441406 167.375 L 153.269531 170.492188 C 153.964844 171.0625 154.664062 171.699219 155.363281 172.207031 C 156 171.761719 156.761719 171.445312 157.523438 171.316406 C 157.585938 168.519531 155.746094 166.042969 153.839844 163.433594 C 152.949219 162.226562 152.0625 161.019531 151.363281 159.75 C 150.980469 159.113281 150.726562 158.476562 150.410156 157.777344 C 149.902344 156.699219 149.394531 155.679688 148.757812 154.726562 C 146.347656 151.359375 141.328125 150.085938 137.203125 151.675781 C 133.390625 153.136719 130.34375 157.015625 129.519531 161.402344 C 128.25 168.011719 131.359375 174.621094 134.597656 180.214844 C 137.390625 185.046875 140.632812 189.816406 145.519531 192.230469 C 146.917969 192.929688 148.378906 193.375 149.839844 193.882812 C 151.554688 194.453125 153.332031 195.027344 154.984375 195.917969 C 155.933594 196.425781 156.824219 197.125 157.648438 197.695312 C 158.664062 198.460938 159.808594 199.222656 160.953125 199.792969 C 162.855469 200.683594 165.652344 200.9375 167.175781 199.347656 C 167.746094 198.777344 168.0625 198.015625 168.445312 197.25 C 168.699219 196.742188 168.890625 196.234375 169.207031 195.726562 C 169.714844 194.898438 170.539062 194.390625 171.429688 194.328125 C 172.128906 194.265625 172.761719 194.519531 173.207031 195.027344 C 174.730469 196.808594 175.492188 199.160156 176.066406 201.445312 C 176.257812 202.210938 176.445312 203.035156 176.636719 203.863281 C 177.652344 208.183594 178.667969 212.699219 181.652344 215.875 C 183.941406 218.355469 187.242188 219.753906 190.097656 221.023438 L 204.960938 227.574219 C 208.386719 227.636719 211.625 228.90625 214.800781 230.179688 C 216.515625 230.878906 218.292969 231.578125 220.074219 232.085938 C 222.992188 232.910156 226.042969 233.164062 229.027344 233.421875 C 232.074219 233.675781 235.121094 233.929688 238.109375 234.753906 C 242.617188 234.945312 247.0625 235.835938 251.316406 237.488281 C 253.222656 238.1875 255.445312 239.203125 256.96875 240.984375 C 257.792969 241.875 258.429688 243.082031 258.683594 244.417969 C 260.398438 244.988281 262.113281 245.371094 263.824219 245.75 C 270.050781 246.960938 278.050781 246.640625 281.734375 242 L 282.367188 242.511719 C 278.429688 247.40625 270.113281 247.847656 263.699219 246.578125 C 262.046875 246.261719 260.398438 245.816406 258.808594 245.308594 C 258.808594 246.007812 258.746094 246.769531 258.429688 247.46875 C 257.347656 250.011719 254.679688 250.902344 252.140625 251.726562 C 250.554688 252.234375 248.839844 252.808594 247.570312 253.761719 C 245.15625 255.539062 244.140625 258.78125 243.503906 261.644531 L 243.316406 262.46875 C 242.679688 265.265625 242.042969 268.191406 240.203125 270.480469 C 238.933594 272.003906 237.027344 273.019531 235.058594 273.085938 C 235.121094 273.339844 235.058594 273.339844 234.933594 273.339844 Z M 204.832031 228.527344 C 202.417969 228.527344 199.5625 229.605469 199.054688 231.957031 C 198.355469 235.199219 202.609375 237.425781 205.214844 238.503906 C 210.421875 240.601562 215.691406 243.082031 219.566406 247.214844 C 223.4375 251.34375 225.46875 256.683594 227.503906 261.898438 C 228.453125 264.441406 229.472656 267.046875 230.675781 269.460938 C 231.058594 270.222656 231.441406 270.988281 232.074219 271.558594 C 233.089844 272.511719 234.296875 272.640625 235.1875 272.578125 C 236.902344 272.449219 238.617188 271.558594 239.757812 270.222656 C 241.472656 268.125 242.109375 265.265625 242.742188 262.53125 L 242.933594 261.707031 C 243.632812 258.65625 244.648438 255.285156 247.316406 253.378906 C 248.710938 252.363281 250.425781 251.789062 252.078125 251.21875 C 254.617188 250.390625 256.96875 249.566406 257.921875 247.40625 C 258.238281 246.707031 258.300781 246.007812 258.238281 245.308594 C 255.953125 244.542969 253.730469 243.589844 251.570312 242.511719 C 250.171875 241.8125 248.777344 240.984375 247.503906 240.222656 C 244.773438 238.632812 241.980469 237.042969 238.996094 236.089844 C 238.742188 236.027344 238.488281 235.960938 238.234375 235.835938 C 237.980469 235.835938 237.726562 235.835938 237.472656 235.835938 C 235.886719 235.773438 234.296875 235.835938 232.773438 235.898438 C 230.234375 235.960938 227.628906 236.089844 225.027344 235.773438 C 219.882812 235.136719 215.054688 233.039062 210.421875 231.003906 L 204.832031 228.527344 C 204.894531 228.527344 204.894531 228.527344 204.832031 228.527344 Z M 241.21875 236.027344 C 243.503906 236.980469 245.726562 238.25 247.824219 239.523438 C 249.15625 240.285156 250.492188 241.046875 251.886719 241.8125 C 253.855469 242.828125 255.886719 243.71875 257.984375 244.417969 C 257.730469 243.398438 257.15625 242.511719 256.585938 241.8125 C 255.125 240.15625 253.03125 239.269531 251.253906 238.570312 C 248.015625 237.234375 244.648438 236.40625 241.21875 236.027344 Z M 207.371094 228.714844 L 210.675781 230.179688 C 215.246094 232.210938 220.007812 234.308594 225.027344 234.882812 C 227.566406 235.199219 230.167969 235.074219 232.644531 235.007812 C 233.152344 235.007812 233.726562 234.945312 234.234375 234.945312 C 232.519531 234.691406 230.742188 234.5625 229.027344 234.375 C 225.976562 234.121094 222.867188 233.863281 219.882812 232.976562 C 218.039062 232.464844 216.261719 231.703125 214.484375 231.003906 C 212.136719 230.113281 209.785156 229.160156 207.371094 228.714844 Z M 156.378906 182.695312 C 158.792969 182.695312 160.699219 184.601562 162.347656 186.320312 L 162.414062 186.382812 C 164 187.972656 166.351562 189.6875 168.445312 188.796875 C 169.144531 188.480469 169.714844 187.84375 170.03125 187.082031 C 170.414062 186.0625 170.414062 184.855469 169.96875 183.902344 C 169.269531 182.3125 167.621094 180.980469 165.398438 180.34375 C 165.269531 180.28125 165.078125 180.28125 164.953125 180.214844 C 163.9375 179.960938 162.921875 179.644531 162.285156 178.816406 C 161.652344 178.054688 161.523438 177.101562 161.460938 176.148438 C 161.015625 176.085938 160.632812 175.957031 160.191406 175.832031 C 159.175781 175.511719 158.15625 175.066406 157.269531 174.496094 C 156.886719 174.941406 156.378906 175.257812 155.871094 175.386719 C 155.300781 175.578125 154.792969 175.511719 154.347656 175.195312 C 153.902344 176.402344 153.777344 177.929688 153.902344 179.773438 C 153.902344 180.027344 153.964844 180.34375 153.964844 180.597656 C 154.03125 181.425781 154.09375 182.3125 154.09375 183.140625 C 154.664062 182.886719 155.300781 182.695312 156 182.632812 C 156.0625 182.695312 156.1875 182.695312 156.378906 182.695312 Z M 142.472656 165.597656 C 140.820312 165.597656 139.105469 166.230469 137.902344 167.25 C 137.136719 167.886719 136.25 168.964844 136.1875 170.492188 C 136.121094 171.507812 136.441406 172.523438 136.757812 173.480469 C 137.710938 176.402344 139.042969 179.261719 140.566406 181.996094 C 141.710938 183.96875 143.363281 186.382812 145.773438 187.589844 C 147.871094 188.605469 151.046875 188.417969 152.441406 186.320312 C 152.824219 185.746094 153.015625 185.175781 153.140625 184.539062 C 152.507812 184.792969 151.808594 185.046875 151.046875 185.109375 C 148.886719 185.238281 147.042969 183.523438 146.28125 181.804688 C 145.457031 179.960938 145.332031 177.929688 145.265625 176.085938 C 145.203125 173.988281 145.078125 171.445312 146.21875 169.347656 C 146.664062 168.585938 147.300781 167.949219 148.0625 167.441406 C 146.535156 166.488281 144.886719 165.722656 143.109375 165.597656 C 142.855469 165.597656 142.664062 165.597656 142.472656 165.597656 Z M 148.824219 167.949219 C 148.0625 168.328125 147.300781 168.964844 146.917969 169.726562 C 145.839844 171.636719 145.964844 174.050781 146.027344 176.019531 C 146.09375 177.800781 146.21875 179.773438 146.980469 181.425781 C 147.679688 182.886719 149.203125 184.347656 150.980469 184.285156 C 151.742188 184.222656 152.441406 183.964844 153.203125 183.585938 C 153.269531 182.632812 153.203125 181.679688 153.078125 180.726562 C 153.078125 180.472656 153.015625 180.152344 153.015625 179.898438 C 152.886719 177.800781 153.078125 176.019531 153.648438 174.6875 C 153.394531 174.304688 153.269531 173.859375 153.203125 173.480469 L 152.570312 171.0625 C 152.507812 171 152.378906 170.9375 152.316406 170.871094 L 151.617188 170.300781 C 150.726562 169.410156 149.777344 168.648438 148.824219 167.949219 Z M 157.714844 173.921875 C 158.539062 174.433594 159.429688 174.8125 160.378906 175.132812 C 160.699219 175.257812 161.015625 175.320312 161.332031 175.386719 C 161.269531 174.75 161.207031 174.113281 160.953125 173.605469 C 160.570312 172.84375 159.871094 172.398438 158.917969 172.207031 C 158.730469 172.207031 158.476562 172.144531 158.285156 172.144531 C 158.285156 172.269531 158.222656 172.460938 158.222656 172.589844 C 158.15625 173.097656 157.96875 173.542969 157.714844 173.921875 Z M 154.601562 174.558594 C 154.855469 174.8125 155.238281 174.8125 155.617188 174.75 C 155.933594 174.621094 156.253906 174.433594 156.570312 174.179688 C 156.1875 173.921875 155.808594 173.667969 155.492188 173.414062 C 155.109375 173.734375 154.855469 174.113281 154.601562 174.558594 Z M 153.648438 171.890625 L 153.964844 173.222656 C 154.03125 173.414062 154.03125 173.605469 154.09375 173.734375 C 154.285156 173.414062 154.539062 173.097656 154.792969 172.84375 C 154.410156 172.589844 154.03125 172.269531 153.648438 171.890625 Z M 156.0625 172.84375 C 156.378906 173.097656 156.695312 173.289062 157.015625 173.542969 C 157.207031 173.222656 157.394531 172.84375 157.460938 172.523438 C 157.460938 172.460938 157.460938 172.335938 157.523438 172.269531 C 157.015625 172.335938 156.507812 172.523438 156.0625 172.84375 Z M 149.710938 167.628906 C 150.539062 168.265625 151.363281 168.902344 152.1875 169.601562 L 152.253906 169.664062 L 151.808594 167.949219 C 151.109375 167.503906 150.285156 167.503906 149.710938 167.628906 Z M 149.710938 167.628906 " fill-opacity="1" fill-rule="nonzero"/><g clip-path="url(#4238d9f0b6)"><path fill="#000000" d="M 207.183594 343.132812 C 206.992188 343.132812 206.800781 343.132812 206.609375 343.070312 C 205.59375 342.941406 204.707031 342.371094 204.132812 341.542969 C 203.246094 340.273438 202.992188 338.367188 203.433594 336.585938 L 204.195312 336.777344 C 203.816406 338.367188 204.070312 340.019531 204.832031 341.097656 C 205.339844 341.796875 205.976562 342.179688 206.800781 342.308594 C 207.753906 342.433594 208.578125 342.179688 209.085938 341.609375 C 209.660156 340.972656 209.785156 340.019531 209.53125 338.9375 C 208.640625 335.757812 205.46875 334.996094 202.484375 334.617188 C 192.894531 333.40625 182.988281 334.359375 173.84375 337.347656 C 172.191406 337.921875 170.476562 338.554688 168.890625 339.128906 C 165.460938 340.398438 161.96875 341.734375 158.285156 342.433594 C 150.980469 343.769531 143.234375 342.496094 136.441406 341.351562 C 129.898438 340.273438 123.105469 339.128906 116.628906 337.222656 C 111.800781 335.824219 106.910156 333.980469 102.210938 332.136719 C 91.417969 328.132812 80.496094 323.9375 69.253906 324.828125 C 67.347656 326.796875 65 328.257812 62.648438 329.023438 C 61.570312 329.339844 60.746094 328.703125 60.492188 327.878906 C 60.238281 327.050781 60.492188 326.035156 61.507812 325.589844 C 63.347656 324.890625 65.378906 324.445312 67.667969 324.128906 C 68.046875 324.0625 68.492188 324.0625 68.875 324 C 69.316406 323.492188 69.824219 322.984375 70.207031 322.410156 C 72.621094 319.105469 74.144531 315.164062 75.542969 311.351562 C 75.984375 310.207031 76.429688 309.0625 76.875 307.917969 C 80.875 298.003906 86.335938 290.628906 93.195312 285.925781 C 97.511719 283 102.402344 281.03125 107.164062 279.1875 C 111.230469 277.597656 115.355469 275.945312 119.105469 273.71875 C 127.359375 268.761719 133.582031 260.816406 136.503906 251.789062 C 134.980469 251.34375 133.457031 250.773438 132.058594 249.820312 C 130.214844 248.546875 129.011719 246.640625 128.820312 244.542969 C 128.503906 241.621094 130.089844 240.347656 131.613281 239.078125 C 131.996094 238.757812 132.375 238.441406 132.691406 238.125 C 135.996094 234.945312 136.25 229.859375 136.058594 227.128906 C 135.933594 225.15625 135.613281 223.1875 135.296875 221.28125 C 134.980469 219.246094 134.597656 217.148438 134.472656 215.050781 C 134.027344 206.40625 137.648438 198.140625 140.820312 190.832031 L 141.519531 191.148438 C 138.410156 198.394531 134.789062 206.597656 135.234375 215.050781 C 135.359375 217.085938 135.679688 219.183594 135.996094 221.214844 C 136.3125 223.1875 136.628906 225.15625 136.757812 227.191406 C 136.949219 230.050781 136.695312 235.453125 133.136719 238.824219 C 132.757812 239.140625 132.375 239.457031 131.996094 239.777344 C 130.535156 240.984375 129.199219 242.066406 129.453125 244.542969 C 129.644531 246.386719 130.726562 248.105469 132.375 249.246094 C 133.710938 250.136719 135.105469 250.710938 136.566406 251.15625 C 137.074219 249.503906 137.457031 247.847656 137.710938 246.132812 C 137.902344 244.796875 138.28125 243.71875 138.851562 242.828125 C 139.867188 241.238281 141.265625 240.285156 142.855469 240.15625 C 145.519531 239.96875 148.1875 241.9375 149.648438 243.652344 C 153.394531 248.105469 154.792969 254.015625 156.1875 259.800781 C 156.441406 260.878906 156.695312 261.960938 156.953125 263.042969 L 160.699219 266.285156 C 162.222656 267.617188 164 269.082031 164.890625 271.113281 L 164.890625 271.179688 C 165.523438 272.703125 164.699219 273.976562 163.683594 274.546875 C 162.601562 275.117188 161.015625 275.054688 160.125 273.59375 C 158.285156 270.605469 157.140625 267.109375 156.253906 263.488281 L 150.664062 258.65625 C 148.695312 256.9375 146.664062 255.222656 144.25 254.140625 C 142.664062 253.441406 140.886719 253 139.171875 252.617188 C 138.472656 252.488281 137.835938 252.300781 137.136719 252.109375 C 134.152344 261.390625 127.804688 269.523438 119.359375 274.546875 C 115.546875 276.835938 111.355469 278.488281 107.292969 280.078125 C 102.59375 281.921875 97.703125 283.828125 93.449219 286.75 C 86.71875 291.390625 81.320312 298.636719 77.382812 308.363281 C 76.9375 309.507812 76.492188 310.652344 76.050781 311.796875 C 74.589844 315.671875 73.066406 319.679688 70.585938 323.046875 C 70.332031 323.429688 70.015625 323.746094 69.761719 324.0625 C 80.8125 323.429688 91.542969 327.558594 101.957031 331.5 C 106.65625 333.28125 111.484375 335.125 116.308594 336.523438 C 122.785156 338.367188 129.519531 339.511719 136.058594 340.589844 C 143.109375 341.796875 150.472656 343.007812 157.648438 341.671875 C 161.269531 341.035156 164.761719 339.699219 168.128906 338.429688 C 169.777344 337.792969 171.429688 337.15625 173.144531 336.648438 C 182.414062 333.597656 192.449219 332.644531 202.164062 333.851562 C 205.277344 334.234375 208.894531 335.1875 209.914062 338.8125 C 210.292969 340.144531 210.039062 341.351562 209.339844 342.179688 C 209.023438 342.75 208.132812 343.132812 207.183594 343.132812 Z M 67.984375 324.953125 C 67.921875 324.953125 67.855469 324.953125 67.730469 324.953125 C 65.507812 325.207031 63.476562 325.714844 61.761719 326.351562 C 61.125 326.605469 61 327.179688 61.191406 327.625 C 61.316406 328.070312 61.761719 328.449219 62.394531 328.257812 C 64.363281 327.625 66.332031 326.480469 67.984375 324.953125 Z M 157.585938 264.25 C 158.410156 267.363281 159.492188 270.414062 161.078125 273.019531 C 161.714844 274.039062 162.792969 274.101562 163.617188 273.65625 C 164.382812 273.277344 164.890625 272.386719 164.445312 271.367188 C 163.617188 269.460938 161.90625 268 160.445312 266.726562 Z M 137.648438 251.21875 C 138.28125 251.410156 138.917969 251.535156 139.613281 251.664062 C 141.328125 252.042969 143.171875 252.488281 144.824219 253.253906 C 147.363281 254.398438 149.394531 256.175781 151.425781 257.894531 L 156.1875 261.960938 C 156 261.261719 155.871094 260.5 155.679688 259.800781 C 154.347656 254.140625 152.949219 248.359375 149.332031 244.035156 C 147.996094 242.445312 145.585938 240.667969 143.234375 240.855469 C 141.835938 240.984375 140.695312 241.746094 139.804688 243.144531 C 139.296875 243.972656 138.980469 244.925781 138.789062 246.132812 C 138.535156 247.847656 138.15625 249.566406 137.648438 251.21875 Z M 137.648438 251.21875 " fill-opacity="1" fill-rule="nonzero"/></g><path fill="#000000" d="M 123.867188 262.597656 C 123.039062 262.597656 122.152344 262.46875 121.390625 262.214844 C 118.914062 261.515625 116.945312 259.800781 114.976562 258.210938 C 114.59375 257.894531 114.277344 257.636719 113.898438 257.320312 C 112.5 257.449219 111.164062 257.195312 110.085938 256.558594 C 109.453125 256.175781 109.386719 255.476562 109.707031 254.96875 C 110.023438 254.460938 110.65625 254.140625 111.292969 254.523438 C 112.308594 255.097656 113.261719 255.796875 114.214844 256.558594 C 115.484375 256.429688 116.816406 255.859375 117.769531 255.03125 C 121.835938 251.535156 121.898438 245.050781 119.867188 240.476562 C 117.769531 235.773438 113.898438 232.210938 109.453125 228.398438 C 107.101562 226.363281 104.941406 224.265625 104.5625 221.46875 C 104.371094 220.007812 104.6875 218.484375 105.007812 217.085938 C 105.386719 215.367188 105.769531 213.777344 105.261719 212.253906 C 104.6875 210.601562 103.292969 209.457031 101.769531 208.3125 C 100.75 207.550781 99.734375 206.722656 98.972656 205.707031 C 96.6875 202.84375 96.496094 198.523438 98.339844 192.613281 L 98.65625 191.65625 C 99.925781 187.71875 101.195312 183.648438 99.863281 179.960938 C 98.273438 175.578125 93.449219 173.222656 89.703125 172.015625 C 88.621094 171.636719 87.480469 171.316406 86.335938 171 C 83.035156 170.046875 79.605469 169.09375 76.746094 167.121094 C 71.097656 163.179688 68.367188 155.300781 70.144531 147.988281 C 71.730469 141.441406 76.492188 135.59375 83.226562 131.90625 C 84.242188 131.335938 85.382812 130.828125 86.398438 130.316406 C 90.019531 128.539062 93.765625 126.757812 95.671875 123.324219 C 96.117188 122.5 96.433594 121.609375 96.75 120.785156 C 97.003906 120.085938 97.257812 119.386719 97.578125 118.75 C 99.988281 113.601562 106.023438 110.230469 112.246094 110.675781 C 117.707031 111.058594 123.296875 114.171875 127.105469 119.128906 C 127.613281 119.765625 128.058594 120.402344 128.503906 121.039062 C 130.34375 123.582031 132.25 126.25 135.167969 127.011719 C 137.710938 127.710938 140.3125 126.757812 142.664062 125.421875 C 142.472656 123.515625 141.773438 121.738281 140.503906 120.210938 C 138.726562 118.113281 136.058594 116.777344 133.710938 115.632812 L 110.785156 104.445312 C 109.578125 103.875 108.117188 103.175781 108.179688 100.949219 C 108.246094 99.808594 108.6875 98.664062 109.578125 97.644531 C 112.5625 94.148438 117.136719 92.816406 121.515625 91.542969 C 122.152344 91.351562 122.722656 91.160156 123.359375 90.972656 C 129.644531 89.0625 133.265625 86.332031 134.472656 82.644531 C 134.851562 81.4375 134.980469 80.101562 135.105469 78.765625 C 135.167969 77.6875 135.296875 76.542969 135.550781 75.460938 C 136.441406 71.839844 138.980469 69.042969 141.394531 66.308594 C 141.835938 65.800781 142.28125 65.292969 142.726562 64.78125 C 143.617188 63.765625 144.632812 62.875 145.648438 62.238281 C 151.425781 58.488281 156.125 61.605469 160.632812 64.59375 C 163.109375 66.246094 165.585938 67.898438 168.316406 68.53125 C 172.761719 69.550781 177.90625 67.390625 180.257812 63.382812 L 180.957031 63.765625 C 178.414062 68.089844 173.015625 70.375 168.128906 69.230469 C 165.269531 68.53125 162.667969 66.816406 160.125 65.164062 C 155.617188 62.175781 151.363281 59.378906 146.027344 62.8125 C 145.078125 63.449219 144.125 64.273438 143.296875 65.226562 C 142.855469 65.734375 142.410156 66.246094 141.964844 66.753906 C 139.550781 69.421875 137.136719 72.15625 136.3125 75.589844 C 136.058594 76.605469 135.996094 77.75 135.867188 78.765625 C 135.742188 80.101562 135.613281 81.5 135.167969 82.835938 C 133.835938 86.839844 130.027344 89.699219 123.484375 91.671875 C 122.851562 91.859375 122.277344 92.050781 121.644531 92.242188 C 117.390625 93.449219 112.945312 94.785156 110.085938 98.089844 C 109.578125 98.726562 108.945312 99.679688 108.878906 100.886719 C 108.816406 102.605469 109.894531 103.113281 111.039062 103.621094 L 133.835938 114.746094 C 136.25 115.890625 138.980469 117.222656 140.886719 119.511719 C 142.21875 121.039062 142.917969 122.882812 143.234375 124.722656 C 143.871094 124.34375 144.503906 123.898438 145.078125 123.515625 C 145.902344 122.945312 146.664062 122.371094 147.488281 121.800781 C 150.472656 119.640625 153.523438 117.414062 156.886719 115.761719 C 158.539062 114.933594 160.761719 114.109375 163.175781 113.726562 C 163.492188 113.347656 163.808594 112.964844 164.128906 112.710938 C 167.300781 109.53125 171.683594 107.625 176.128906 107.308594 C 177.96875 107.179688 179.8125 107.371094 181.589844 107.5 C 182.351562 107.5625 183.113281 107.625 183.941406 107.6875 C 183.75 107.5 183.558594 107.242188 183.367188 107.054688 C 182.480469 106.101562 181.527344 104.890625 180.828125 103.558594 C 180.257812 102.414062 179.875 101.140625 179.621094 99.550781 C 177.652344 88.046875 185.464844 75.652344 196.703125 72.472656 C 199.625 71.648438 201.972656 71.773438 203.6875 72.855469 C 205.339844 73.9375 206.484375 75.84375 207.117188 78.832031 C 208.578125 85.757812 207.371094 92.941406 203.816406 98.535156 C 200.007812 104.445312 193.464844 108.324219 186.796875 108.578125 C 186.542969 108.578125 186.289062 108.578125 186.035156 108.578125 C 189.65625 112.074219 193.402344 114.234375 197.273438 115 C 202.800781 116.144531 208.578125 114.171875 211.308594 110.105469 C 212.898438 107.816406 213.46875 104.957031 214.101562 102.222656 C 214.675781 99.550781 215.308594 96.753906 216.769531 94.402344 C 219.691406 89.699219 225.976562 87.285156 232.011719 88.554688 C 237.15625 89.636719 242.042969 93.324219 245.472656 98.535156 C 246.363281 99.933594 247.125 101.394531 247.886719 102.792969 C 248.777344 104.382812 249.664062 106.101562 250.679688 107.625 C 252.585938 110.421875 255.125 112.835938 257.984375 114.679688 C 258.238281 114.871094 258.492188 115 258.808594 115.191406 C 259.632812 115.699219 260.523438 116.207031 261.285156 116.90625 C 262.429688 117.921875 263.253906 119.195312 264.078125 120.464844 L 269.730469 129.109375 C 271.828125 132.289062 274.175781 135.910156 274.8125 139.980469 C 275.003906 140.996094 275.066406 142.332031 274.8125 143.667969 C 275.320312 144.300781 275.699219 145.066406 275.828125 145.890625 C 276.335938 149.195312 273.921875 152.246094 272.398438 154.28125 L 271.765625 153.773438 C 273.289062 151.867188 275.511719 148.941406 275.066406 145.953125 C 275.003906 145.445312 274.8125 145 274.558594 144.621094 C 274.367188 145.128906 274.113281 145.699219 273.796875 146.210938 C 273.160156 147.164062 272.273438 147.863281 271.191406 148.242188 C 270.304688 148.5625 269.351562 148.371094 268.652344 147.671875 C 267.953125 146.972656 267.761719 145.953125 268.082031 145.066406 C 268.90625 142.96875 270.683594 141.886719 272.527344 142.269531 C 273.097656 142.394531 273.605469 142.648438 274.050781 142.96875 C 274.175781 141.949219 274.113281 140.933594 273.984375 140.105469 C 273.351562 136.230469 271.066406 132.671875 269.03125 129.554688 L 263.382812 120.910156 C 262.621094 119.703125 261.792969 118.496094 260.714844 117.542969 C 260.015625 116.90625 259.191406 116.398438 258.363281 115.890625 C 258.109375 115.699219 257.792969 115.570312 257.539062 115.378906 C 254.617188 113.535156 252.015625 110.996094 249.980469 108.132812 C 248.902344 106.542969 248.015625 104.890625 247.125 103.238281 C 246.363281 101.839844 245.601562 100.378906 244.710938 99.042969 C 241.410156 93.957031 236.710938 90.460938 231.757812 89.382812 C 226.167969 88.175781 220.074219 90.460938 217.34375 94.847656 C 215.945312 97.074219 215.375 99.808594 214.800781 102.414062 C 214.167969 105.210938 213.53125 108.132812 211.945312 110.550781 C 209.023438 114.871094 202.925781 117.03125 197.085938 115.761719 C 192.832031 114.871094 188.703125 112.457031 184.828125 108.515625 C 183.75 108.453125 182.667969 108.386719 181.589844 108.261719 C 179.8125 108.132812 177.96875 107.941406 176.191406 108.070312 C 171.9375 108.324219 167.746094 110.230469 164.699219 113.21875 C 164.570312 113.347656 164.507812 113.410156 164.382812 113.535156 C 165.777344 113.410156 167.175781 113.410156 168.636719 113.664062 C 169.589844 113.792969 170.351562 114.492188 170.667969 115.445312 C 170.921875 116.398438 170.605469 117.414062 169.90625 118.050781 C 168.636719 119.128906 166.539062 119.574219 164.570312 119.128906 C 163.046875 118.75 161.96875 117.222656 162.285156 115.699219 C 162.347656 115.316406 162.476562 115 162.667969 114.617188 C 160.570312 115.0625 158.730469 115.761719 157.269531 116.460938 C 153.964844 118.050781 150.917969 120.273438 147.996094 122.4375 C 147.171875 123.007812 146.410156 123.582031 145.585938 124.214844 C 144.886719 124.722656 144.1875 125.234375 143.363281 125.679688 C 143.742188 130.316406 141.457031 135.402344 138.027344 138.707031 C 137.011719 139.726562 135.867188 140.617188 134.726562 141.503906 C 133.203125 142.714844 131.675781 143.921875 130.40625 145.382812 C 125.390625 151.167969 124.691406 160.195312 128.3125 173.035156 L 128.757812 174.621094 C 131.421875 183.839844 134.089844 193.375 130.28125 201.890625 C 130.089844 202.335938 129.519531 203.417969 128.628906 203.671875 C 128.183594 203.800781 127.738281 203.734375 127.296875 203.480469 C 126.597656 203.035156 126.28125 202.144531 126.46875 201.320312 C 127.738281 195.917969 123.550781 191.277344 119.738281 187.84375 C 118.339844 186.574219 116.945312 185.367188 115.484375 184.15625 C 114.976562 184.15625 114.40625 184.09375 113.898438 184.09375 C 112.945312 184.03125 111.929688 183.96875 110.976562 184.03125 C 110.339844 184.03125 109.640625 184.15625 109.070312 184.476562 C 108.5 184.855469 107.992188 185.492188 107.671875 186.507812 C 106.023438 191.46875 109.640625 196.550781 113.261719 199.476562 C 114.847656 200.746094 116.628906 201.828125 118.277344 202.972656 C 120.882812 204.625 123.613281 206.339844 125.773438 208.695312 C 129.199219 212.316406 130.914062 218.292969 128.183594 222.296875 C 129.011719 222.550781 129.835938 222.933594 130.535156 223.441406 C 133.710938 225.730469 133.519531 230.558594 132.25 234.246094 C 132.058594 234.882812 131.804688 235.519531 131.550781 236.21875 C 130.535156 239.078125 129.453125 242.066406 130.152344 244.925781 C 130.40625 246.007812 130.914062 246.960938 131.421875 247.976562 C 131.867188 248.867188 132.3125 249.757812 132.628906 250.710938 C 133.644531 253.886719 132.757812 257.636719 130.40625 260.054688 C 128.882812 261.578125 126.40625 262.597656 123.867188 262.597656 Z M 114.976562 257.195312 C 115.167969 257.320312 115.292969 257.449219 115.484375 257.636719 C 117.390625 259.226562 119.292969 260.816406 121.582031 261.515625 C 124.5 262.40625 127.929688 261.453125 130.089844 259.292969 C 132.25 257.066406 133.011719 253.632812 132.121094 250.710938 C 131.804688 249.820312 131.359375 248.929688 130.980469 248.105469 C 130.472656 247.085938 129.898438 246.007812 129.644531 244.863281 C 128.882812 241.746094 129.960938 238.695312 131.042969 235.707031 C 131.296875 235.074219 131.488281 234.4375 131.742188 233.800781 C 132.882812 230.371094 133.074219 225.984375 130.28125 223.886719 C 129.582031 223.378906 128.757812 223.058594 127.867188 222.804688 C 127.804688 222.867188 127.738281 222.996094 127.675781 223.058594 L 127.296875 223.503906 L 126.789062 222.488281 C 126.214844 222.296875 125.707031 222.167969 125.136719 221.914062 C 121.898438 220.515625 119.613281 217.085938 119.546875 213.589844 C 119.546875 213.207031 119.546875 212 120.691406 211.679688 C 121.453125 211.492188 122.34375 211.871094 122.722656 212.699219 L 127.296875 221.851562 C 127.296875 221.851562 127.359375 221.851562 127.359375 221.851562 C 127.421875 221.851562 127.484375 221.914062 127.550781 221.914062 C 130.214844 218.226562 128.566406 212.570312 125.328125 209.136719 C 123.230469 206.914062 120.5625 205.199219 117.960938 203.542969 C 116.246094 202.464844 114.46875 201.320312 112.878906 200.046875 C 109.070312 196.996094 105.261719 191.59375 107.039062 186.253906 C 107.417969 185.109375 107.992188 184.285156 108.753906 183.839844 C 109.453125 183.394531 110.277344 183.332031 111.039062 183.265625 C 112.054688 183.203125 113.070312 183.265625 114.023438 183.332031 C 114.214844 183.332031 114.40625 183.332031 114.59375 183.332031 C 113.960938 182.824219 113.386719 182.3125 112.753906 181.804688 C 106.910156 176.910156 100.878906 171.890625 96.117188 165.722656 C 90.148438 157.96875 85.257812 145.828125 89.574219 135.085938 C 93.640625 124.851562 106.023438 118.8125 116.5625 121.800781 C 119.105469 122.5 120.882812 123.582031 122.023438 125.105469 C 123.296875 126.820312 123.675781 129.617188 122.089844 131.335938 C 121.644531 131.78125 121.199219 132.097656 120.691406 132.414062 C 120.375 132.605469 120.054688 132.859375 119.738281 133.113281 C 118.722656 134.003906 118.085938 135.277344 117.515625 136.546875 C 114.46875 143.730469 112.753906 151.292969 112.371094 159.050781 C 112.308594 160.128906 112.308594 161.273438 112.945312 162.101562 C 113.515625 162.925781 114.660156 163.246094 115.675781 163.5625 L 116.054688 163.691406 C 118.914062 164.453125 122.152344 165.34375 123.804688 168.328125 C 124.753906 170.046875 124.566406 172.082031 123.359375 173.414062 C 122.023438 174.878906 120.308594 174.8125 118.597656 174.75 C 117.960938 174.75 117.261719 174.6875 116.628906 174.8125 C 115.546875 174.941406 114.40625 175.894531 114.152344 176.847656 C 114.023438 177.292969 114.085938 177.738281 114.46875 177.992188 C 115.421875 178.308594 116.246094 177.609375 117.199219 176.847656 C 118.40625 175.894531 119.738281 174.75 121.582031 175.511719 C 123.039062 176.148438 123.929688 177.800781 123.675781 179.453125 C 123.167969 182.441406 120.183594 183.839844 117.707031 184.09375 C 117.390625 184.15625 117.070312 184.15625 116.753906 184.15625 C 117.960938 185.175781 119.167969 186.191406 120.308594 187.273438 C 123.992188 190.578125 128.757812 195.664062 127.296875 201.574219 C 127.167969 202.082031 127.359375 202.65625 127.804688 202.910156 C 128.058594 203.035156 128.25 203.101562 128.4375 203.035156 C 128.820312 202.910156 129.265625 202.402344 129.582031 201.703125 C 133.265625 193.4375 130.597656 184.03125 127.992188 174.941406 L 127.550781 173.351562 C 123.804688 160.257812 124.566406 150.976562 129.773438 145 C 131.105469 143.476562 132.691406 142.269531 134.21875 140.996094 C 135.296875 140.105469 136.441406 139.21875 137.457031 138.261719 C 140.632812 135.210938 142.664062 130.574219 142.535156 126.25 C 140.125 127.585938 137.390625 128.476562 134.726562 127.710938 C 131.550781 126.820312 129.582031 124.089844 127.675781 121.417969 C 127.230469 120.785156 126.722656 120.148438 126.28125 119.511719 C 122.660156 114.746094 117.324219 111.695312 112.054688 111.375 C 106.148438 110.996094 100.496094 114.109375 98.210938 119.003906 C 97.894531 119.640625 97.640625 120.339844 97.449219 120.972656 C 97.132812 121.863281 96.8125 122.753906 96.304688 123.644531 C 94.335938 127.332031 90.464844 129.175781 86.71875 131.015625 C 85.636719 131.527344 84.558594 132.035156 83.542969 132.605469 C 77 136.164062 72.367188 141.886719 70.84375 148.179688 C 69.191406 155.171875 71.730469 162.734375 77.128906 166.488281 C 79.859375 168.394531 83.226562 169.347656 86.464844 170.238281 C 87.605469 170.554688 88.75 170.871094 89.828125 171.253906 C 95.542969 173.097656 99.164062 175.957031 100.496094 179.707031 C 101.957031 183.710938 100.625 187.90625 99.289062 191.914062 L 98.972656 192.867188 C 97.195312 198.523438 97.386719 202.527344 99.480469 205.199219 C 100.242188 206.152344 101.195312 206.914062 102.148438 207.613281 C 103.671875 208.820312 105.261719 210.027344 105.894531 211.933594 C 106.464844 213.652344 106.085938 215.429688 105.640625 217.210938 C 105.324219 218.546875 105.007812 220.007812 105.195312 221.34375 C 105.578125 223.886719 107.609375 225.855469 109.832031 227.761719 C 114.339844 231.640625 118.277344 235.328125 120.4375 240.15625 C 122.597656 244.988281 122.46875 251.855469 118.085938 255.605469 C 117.324219 256.429688 116.183594 256.9375 114.976562 257.195312 Z M 110.65625 255.222656 C 110.46875 255.222656 110.339844 255.414062 110.339844 255.414062 C 110.277344 255.476562 110.214844 255.730469 110.46875 255.921875 C 111.164062 256.367188 112.054688 256.558594 112.945312 256.621094 C 112.308594 256.113281 111.609375 255.667969 110.910156 255.285156 C 110.785156 255.222656 110.722656 255.222656 110.65625 255.222656 Z M 121.074219 212.445312 C 121.007812 212.445312 120.945312 212.445312 120.882812 212.445312 C 120.5625 212.507812 120.308594 212.761719 120.375 213.523438 C 120.4375 216.703125 122.53125 219.882812 125.453125 221.152344 C 125.707031 221.28125 125.960938 221.34375 126.28125 221.46875 L 121.960938 213.015625 C 121.769531 212.632812 121.453125 212.445312 121.074219 212.445312 Z M 115.929688 183.332031 C 116.5625 183.332031 117.136719 183.332031 117.769531 183.265625 C 119.929688 183.011719 122.597656 181.871094 123.039062 179.328125 C 123.230469 178.054688 122.597656 176.71875 121.453125 176.277344 C 120.121094 175.703125 119.039062 176.59375 117.898438 177.484375 C 116.816406 178.375 115.675781 179.261719 114.277344 178.753906 L 114.152344 178.691406 C 113.515625 178.183594 113.324219 177.484375 113.515625 176.65625 C 113.898438 175.386719 115.292969 174.179688 116.691406 174.050781 C 117.390625 173.988281 118.085938 173.988281 118.785156 173.988281 C 120.375 174.050781 121.835938 174.113281 122.914062 172.90625 C 123.867188 171.824219 124.058594 170.109375 123.230469 168.710938 C 121.707031 166.042969 118.785156 165.214844 115.929688 164.453125 L 115.546875 164.324219 C 114.339844 164.007812 113.132812 163.5625 112.371094 162.546875 C 111.609375 161.527344 111.609375 160.195312 111.675781 159.050781 C 112.054688 151.167969 113.769531 143.539062 116.882812 136.292969 C 117.453125 134.957031 118.152344 133.558594 119.292969 132.542969 C 119.613281 132.289062 119.992188 132.035156 120.308594 131.84375 C 120.753906 131.527344 121.199219 131.273438 121.582031 130.890625 C 122.914062 129.492188 122.597656 127.140625 121.515625 125.679688 C 120.5 124.34375 118.851562 123.390625 116.5 122.691406 C 106.339844 119.765625 94.402344 125.679688 90.464844 135.53125 C 86.273438 146.019531 91.035156 157.839844 96.878906 165.40625 C 101.578125 171.445312 107.546875 176.464844 113.386719 181.359375 C 114.152344 181.871094 115.039062 182.570312 115.929688 183.332031 Z M 271.828125 142.96875 C 270.367188 142.96875 269.351562 144.113281 268.90625 145.320312 C 268.589844 146.082031 268.90625 146.71875 269.289062 147.097656 C 269.730469 147.542969 270.367188 147.734375 271 147.480469 C 271.890625 147.164062 272.714844 146.527344 273.222656 145.699219 C 273.605469 145.128906 273.859375 144.492188 274.050781 143.792969 C 273.605469 143.414062 273.097656 143.09375 272.527344 142.96875 C 272.207031 142.96875 272.019531 142.96875 271.828125 142.96875 Z M 163.746094 114.492188 C 163.492188 114.933594 163.238281 115.378906 163.109375 115.890625 C 162.921875 116.96875 163.683594 118.113281 164.824219 118.367188 C 166.539062 118.75 168.316406 118.429688 169.460938 117.476562 C 169.96875 117.03125 170.160156 116.332031 169.96875 115.699219 C 169.777344 115.0625 169.269531 114.554688 168.570312 114.492188 C 166.921875 114.234375 165.269531 114.300781 163.746094 114.492188 Z M 185.144531 107.816406 C 185.65625 107.816406 186.164062 107.816406 186.734375 107.816406 C 193.148438 107.5625 199.433594 103.8125 203.117188 98.089844 C 206.609375 92.6875 207.753906 85.757812 206.355469 79.019531 C 205.785156 76.289062 204.769531 74.445312 203.308594 73.554688 C 201.785156 72.601562 199.625 72.472656 196.957031 73.238281 C 186.097656 76.289062 178.542969 88.300781 180.445312 99.425781 C 180.703125 100.949219 181.082031 102.160156 181.589844 103.238281 C 182.226562 104.511719 183.179688 105.65625 184.003906 106.609375 C 184.382812 106.988281 184.765625 107.433594 185.144531 107.816406 Z M 185.144531 107.816406 " fill-opacity="1" fill-rule="nonzero"/><path fill="#000000" d="M 283.320312 155.042969 C 283.195312 155.042969 283.128906 155.042969 283.003906 155.042969 C 281.859375 154.980469 280.78125 154.535156 279.703125 154.089844 C 279.195312 153.902344 278.683594 153.644531 278.113281 153.519531 C 276.589844 153.074219 274.304688 153.582031 273.351562 154.726562 L 272.78125 154.21875 C 273.921875 152.882812 276.589844 152.246094 278.367188 152.820312 C 278.941406 153.011719 279.449219 153.203125 280.019531 153.390625 C 281.035156 153.773438 282.050781 154.21875 283.066406 154.28125 C 283.957031 154.34375 285.035156 154.027344 285.671875 153.457031 C 285.925781 153.265625 286.179688 152.945312 286.304688 152.503906 C 283.382812 152.183594 281.542969 149.195312 280.84375 147.863281 C 279.511719 145.191406 278.8125 141.632812 280.90625 139.34375 C 281.734375 138.453125 282.875 137.945312 283.957031 137.5 C 284.148438 137.375 284.402344 137.308594 284.589844 137.183594 C 287.828125 135.722656 290.6875 133.242188 292.65625 130.253906 C 293.671875 128.664062 294.054688 127.332031 293.863281 126.25 C 293.671875 125.421875 293.164062 124.660156 292.71875 123.898438 L 292.65625 123.769531 C 292.210938 123.136719 291.832031 122.5 291.449219 121.863281 C 291.195312 122.816406 290.878906 123.707031 290.558594 124.660156 C 288.910156 128.917969 285.289062 133.6875 279.957031 134.257812 C 279.449219 134.324219 278.8125 134.324219 278.175781 134.132812 C 276.527344 133.625 275.828125 131.78125 275.890625 130.253906 C 276.019531 128.664062 276.84375 127.332031 277.605469 126.121094 C 278.8125 124.28125 280.144531 122.5 281.480469 120.785156 C 283.449219 118.242188 285.417969 115.570312 287.003906 112.710938 C 285.671875 109.085938 284.71875 105.335938 284.210938 101.523438 C 284.019531 100.1875 283.894531 98.664062 284.402344 97.265625 C 284.910156 95.929688 286.304688 94.65625 287.957031 94.914062 L 288.148438 94.914062 L 288.273438 95.039062 C 291.957031 100.1875 290.6875 107.242188 288.273438 112.074219 C 288.148438 112.265625 288.082031 112.519531 287.957031 112.710938 C 288.847656 115.125 289.925781 117.476562 291.195312 119.703125 C 291.511719 118.429688 291.765625 117.097656 291.957031 115.824219 C 292.339844 113.917969 292.71875 112.011719 293.226562 110.105469 C 294.6875 104.703125 297.417969 99.617188 301.101562 95.421875 C 302.753906 93.515625 304.785156 91.160156 303.894531 88.9375 C 303.261719 87.222656 301.164062 86.269531 297.800781 86.203125 C 294.242188 86.078125 290.625 86.269531 287.003906 86.648438 L 286.304688 86.710938 C 281.925781 87.222656 276.972656 87.792969 273.476562 84.996094 C 270.429688 82.515625 269.730469 78.511719 269.03125 74.699219 C 268.777344 73.109375 268.460938 71.457031 268.015625 69.996094 C 266.367188 64.402344 261.855469 59.824219 256.394531 57.980469 C 250.871094 56.136719 244.585938 57.15625 239.886719 60.585938 C 238.871094 61.351562 237.851562 62.238281 236.902344 63.128906 C 235.375 64.527344 233.851562 65.925781 232.011719 66.878906 C 228.710938 68.597656 224.835938 68.722656 222.167969 68.597656 C 218.167969 68.46875 214.230469 67.769531 210.421875 66.691406 C 209.46875 66.433594 208.515625 66.117188 207.5625 65.800781 C 205.59375 65.164062 203.5625 64.527344 201.59375 64.082031 C 200.324219 66.179688 198.164062 67.769531 195.496094 68.46875 C 194.035156 68.851562 192.195312 68.40625 191.304688 67.515625 C 190.796875 67.007812 190.609375 66.308594 190.863281 65.609375 C 191.117188 64.910156 191.6875 64.335938 192.703125 63.894531 C 195.433594 62.683594 198.226562 62.683594 201.148438 63.257812 C 201.210938 63.128906 201.277344 63.066406 201.277344 62.9375 C 202.355469 60.460938 201.847656 57.410156 200.070312 55.691406 C 198.355469 54.039062 195.371094 53.46875 192.195312 54.230469 C 187.558594 55.3125 183.558594 58.488281 181.398438 62.75 C 181.019531 63.511719 180.636719 64.402344 180.320312 65.226562 C 179.75 66.691406 179.113281 68.152344 178.160156 69.488281 C 178.222656 69.742188 178.035156 70.058594 177.019531 70.949219 C 174.796875 72.917969 171.9375 73.871094 169.207031 74.636719 C 166.984375 75.207031 164.699219 75.714844 162.476562 76.222656 C 156.1875 77.621094 149.710938 79.019531 144.441406 82.707031 C 144.058594 82.960938 143.742188 83.214844 143.363281 83.472656 C 141.140625 85.058594 138.789062 86.777344 136.058594 86.394531 C 134.34375 86.140625 132.882812 85.058594 131.804688 84.171875 C 130.597656 83.152344 128.945312 81.5 128.566406 79.402344 C 128.183594 77.496094 128.882812 75.335938 130.40625 73.554688 C 131.804688 71.902344 133.644531 70.695312 135.234375 69.804688 C 136.441406 69.105469 138.664062 68.976562 139.425781 69.105469 C 139.550781 69.105469 139.613281 69.167969 139.679688 69.167969 L 139.867188 69.359375 L 139.613281 69.867188 L 139.296875 69.867188 C 139.234375 69.867188 136.882812 69.675781 135.550781 70.441406 C 134.027344 71.328125 132.25 72.472656 130.914062 74.0625 C 129.519531 75.652344 128.882812 77.621094 129.265625 79.277344 C 129.519531 80.738281 130.472656 82.074219 132.25 83.597656 C 133.265625 84.425781 134.597656 85.441406 136.121094 85.632812 C 138.535156 85.949219 140.695312 84.425781 142.855469 82.898438 C 143.234375 82.644531 143.550781 82.390625 143.933594 82.136719 C 149.332031 78.386719 155.933594 76.921875 162.285156 75.523438 C 164.507812 75.015625 166.792969 74.507812 168.953125 73.9375 C 171.621094 73.238281 174.351562 72.285156 176.445312 70.441406 C 176.511719 70.375 176.574219 70.3125 176.636719 70.25 L 176.574219 70.25 L 177.273438 69.359375 C 178.289062 68.089844 178.859375 66.5625 179.496094 65.035156 C 179.8125 64.210938 180.191406 63.320312 180.574219 62.496094 C 182.796875 58.042969 187.050781 54.675781 191.878906 53.59375 C 195.308594 52.769531 198.546875 53.40625 200.515625 55.246094 C 202.546875 57.21875 203.117188 60.652344 201.910156 63.382812 C 201.910156 63.449219 201.847656 63.511719 201.847656 63.574219 C 203.816406 64.019531 205.785156 64.65625 207.691406 65.292969 C 208.640625 65.609375 209.59375 65.925781 210.484375 66.179688 C 214.230469 67.324219 218.105469 67.960938 222.042969 68.089844 C 224.582031 68.152344 228.328125 68.089844 231.441406 66.433594 C 233.21875 65.480469 234.679688 64.148438 236.140625 62.8125 C 237.089844 61.921875 238.105469 61.03125 239.1875 60.207031 C 244.078125 56.582031 250.679688 55.566406 256.394531 57.472656 C 262.175781 59.378906 266.808594 64.210938 268.523438 69.996094 C 268.96875 71.519531 269.285156 73.171875 269.542969 74.824219 C 270.238281 78.703125 270.875 82.390625 273.730469 84.679688 C 276.972656 87.285156 281.734375 86.710938 285.925781 86.203125 L 286.625 86.140625 C 290.242188 85.695312 293.863281 85.570312 297.480469 85.695312 C 301.230469 85.824219 303.578125 86.902344 304.339844 89 C 305.355469 91.734375 303.070312 94.339844 301.355469 96.3125 C 297.734375 100.441406 295.132812 105.402344 293.671875 110.738281 C 293.164062 112.582031 292.78125 114.492188 292.464844 116.398438 C 292.148438 117.988281 291.832031 119.511719 291.449219 121.101562 C 291.957031 121.992188 292.464844 122.816406 293.035156 123.707031 L 293.101562 123.835938 C 293.609375 124.660156 294.179688 125.488281 294.371094 126.503906 C 294.625 127.839844 294.179688 129.363281 293.035156 131.144531 C 291.003906 134.257812 288.019531 136.800781 284.65625 138.328125 C 284.402344 138.453125 284.210938 138.519531 283.957031 138.644531 C 282.875 139.089844 281.859375 139.535156 281.160156 140.296875 C 279.320312 142.269531 279.957031 145.511719 281.226562 147.925781 C 281.859375 149.195312 283.703125 152.121094 286.433594 152.183594 L 286.878906 152.183594 L 286.878906 152.628906 C 286.8125 153.328125 286.496094 154.027344 285.859375 154.535156 C 285.417969 154.664062 284.335938 155.042969 283.320312 155.042969 Z M 287.386719 113.535156 C 285.859375 116.207031 283.957031 118.6875 282.113281 121.101562 C 280.78125 122.816406 279.449219 124.597656 278.242188 126.378906 C 277.542969 127.457031 276.78125 128.730469 276.652344 130.128906 C 276.589844 131.335938 277.097656 132.796875 278.367188 133.179688 C 278.75 133.304688 279.195312 133.304688 279.828125 133.242188 C 284.78125 132.734375 288.210938 128.21875 289.734375 124.152344 C 290.179688 123.007812 290.496094 121.863281 290.816406 120.71875 C 289.542969 118.496094 288.402344 116.078125 287.386719 113.535156 Z M 287.574219 95.613281 C 286.496094 95.613281 285.542969 96.5 285.164062 97.519531 C 284.71875 98.726562 284.84375 100.125 285.035156 101.332031 C 285.542969 104.828125 286.371094 108.324219 287.574219 111.628906 C 289.863281 106.988281 291.070312 100.441406 287.703125 95.613281 C 287.640625 95.613281 287.574219 95.613281 287.574219 95.613281 Z M 197.71875 63.511719 C 196.132812 63.511719 194.609375 63.765625 193.085938 64.464844 C 192.257812 64.847656 191.8125 65.226562 191.6875 65.734375 C 191.558594 66.179688 191.625 66.5 191.941406 66.878906 C 192.640625 67.578125 194.164062 67.898438 195.308594 67.644531 C 197.59375 67.070312 199.5625 65.671875 200.769531 63.894531 C 199.75 63.636719 198.734375 63.511719 197.71875 63.511719 Z M 197.71875 63.511719 " fill-opacity="1" fill-rule="nonzero"/><path fill="#000000" d="M 204.449219 334.933594 C 203.816406 334.933594 203.117188 334.550781 202.671875 333.917969 C 201.972656 332.960938 201.785156 331.5625 202.164062 330.609375 C 202.484375 329.847656 202.992188 329.210938 203.5 328.578125 C 204.007812 327.941406 204.449219 327.367188 204.769531 326.667969 C 205.46875 325.015625 204.894531 323.175781 204.007812 321.839844 C 197.402344 325.652344 189.527344 327.558594 181.972656 327.113281 C 178.222656 326.925781 175.429688 326.160156 173.269531 324.699219 C 170.097656 322.664062 168.191406 319.359375 166.539062 316.246094 C 164.0625 315.609375 161.714844 314.65625 159.554688 313.128906 C 159.046875 312.75 158.539062 312.367188 158.03125 311.988281 C 156.886719 311.097656 155.808594 310.269531 154.539062 309.761719 C 152.570312 308.933594 150.410156 309 148.0625 309.0625 C 147.171875 309.0625 146.28125 309.125 145.394531 309.0625 C 139.488281 308.871094 133.136719 305.121094 132.628906 299.144531 C 132.3125 295.078125 135.167969 290.820312 139.296875 289.292969 C 143.042969 287.957031 147.617188 288.65625 151.300781 291.199219 C 155.554688 294.125 158.09375 298.890625 160.316406 303.023438 L 166.859375 315.164062 C 166.921875 315.292969 166.984375 315.355469 167.046875 315.484375 C 170.984375 316.4375 175.175781 316.5625 178.734375 316.5 C 179.875 316.5 181.082031 316.4375 182.226562 316.371094 C 187.621094 316.183594 193.210938 315.992188 198.480469 317.453125 C 201.085938 318.152344 202.863281 319.167969 204.195312 320.566406 C 204.261719 320.632812 204.261719 320.632812 204.324219 320.695312 C 205.277344 320.121094 206.230469 319.488281 207.117188 318.851562 C 207.691406 318.40625 208.261719 317.960938 208.894531 317.515625 C 214.039062 313.703125 219.882812 309.316406 226.105469 309.316406 C 226.234375 309.316406 226.296875 309.316406 226.421875 309.316406 L 226.421875 310.144531 C 220.328125 310.015625 214.546875 314.339844 209.402344 318.152344 C 208.832031 318.597656 208.199219 319.042969 207.625 319.488281 C 206.738281 320.121094 205.785156 320.757812 204.832031 321.332031 C 206.039062 323.046875 206.355469 325.144531 205.65625 326.859375 C 205.339844 327.6875 204.832031 328.324219 204.261719 328.957031 C 203.753906 329.59375 203.308594 330.164062 203.054688 330.800781 C 202.738281 331.5 202.925781 332.582031 203.433594 333.28125 C 203.625 333.535156 204.070312 334.042969 204.640625 333.980469 L 204.707031 334.742188 C 204.515625 334.933594 204.515625 334.933594 204.449219 334.933594 Z M 167.492188 316.5625 C 169.015625 319.359375 170.859375 322.285156 173.652344 324.0625 C 175.746094 325.398438 178.414062 326.097656 181.972656 326.351562 C 189.402344 326.796875 197.019531 324.953125 203.5 321.265625 C 202.292969 319.996094 200.640625 319.105469 198.164062 318.40625 C 193.019531 316.945312 187.496094 317.136719 182.160156 317.324219 C 181.019531 317.390625 179.8125 317.390625 178.667969 317.453125 C 175.238281 317.515625 171.304688 317.453125 167.492188 316.5625 Z M 149.710938 308.300781 C 151.425781 308.300781 153.078125 308.425781 154.664062 309.0625 C 156.0625 309.632812 157.207031 310.523438 158.347656 311.414062 C 158.855469 311.796875 159.363281 312.175781 159.871094 312.558594 C 161.714844 313.828125 163.746094 314.71875 165.839844 315.355469 L 159.492188 303.597656 C 157.269531 299.527344 154.792969 294.886719 150.664062 292.027344 C 147.234375 289.613281 142.855469 288.914062 139.359375 290.183594 C 135.550781 291.582031 132.882812 295.460938 133.203125 299.210938 C 133.644531 304.675781 139.679688 308.171875 145.203125 308.363281 C 146.09375 308.363281 146.980469 308.363281 147.808594 308.363281 C 148.503906 308.363281 149.140625 308.300781 149.710938 308.300781 Z M 149.710938 308.300781 " fill-opacity="1" fill-rule="nonzero"/></svg>