<svg xmlns="http://www.w3.org/2000/svg" xmlns:xlink="http://www.w3.org/1999/xlink" width="500" zoomAndPan="magnify" viewBox="0 0 375 374.999991" height="500" preserveAspectRatio="xMidYMid meet" version="1.0"><defs><g/><clipPath id="ba042143e5"><path d="M 151.625 148.464844 L 223.625 148.464844 L 223.625 221.964844 L 151.625 221.964844 Z M 151.625 148.464844 " clip-rule="nonzero"/></clipPath></defs><g fill="#000000" fill-opacity="1"><g transform="translate(73.492899, 207.808213)"><g><path d="M 23.4375 -43.71875 C 25.863281 -43.71875 28.265625 -43.441406 30.640625 -42.890625 C 33.015625 -42.335938 34.78125 -41.785156 35.9375 -41.234375 L 37.6875 -40.40625 L 32.875 -30.8125 C 29.5625 -32.570312 26.414062 -33.453125 23.4375 -33.453125 C 21.78125 -33.453125 20.601562 -33.269531 19.90625 -32.90625 C 19.21875 -32.550781 18.875 -31.878906 18.875 -30.890625 C 18.875 -30.671875 18.898438 -30.445312 18.953125 -30.21875 C 19.015625 -30 19.128906 -29.789062 19.296875 -29.59375 C 19.460938 -29.40625 19.613281 -29.242188 19.75 -29.109375 C 19.882812 -28.972656 20.117188 -28.820312 20.453125 -28.65625 C 20.785156 -28.488281 21.046875 -28.363281 21.234375 -28.28125 C 21.429688 -28.195312 21.75 -28.070312 22.1875 -27.90625 C 22.632812 -27.738281 22.96875 -27.613281 23.1875 -27.53125 C 23.40625 -27.445312 23.773438 -27.320312 24.296875 -27.15625 C 24.828125 -27 25.226562 -26.890625 25.5 -26.828125 C 27.21875 -26.335938 28.710938 -25.785156 29.984375 -25.171875 C 31.253906 -24.566406 32.59375 -23.738281 34 -22.6875 C 35.40625 -21.644531 36.492188 -20.320312 37.265625 -18.71875 C 38.035156 -17.113281 38.421875 -15.289062 38.421875 -13.25 C 38.421875 -3.582031 31.710938 1.25 18.296875 1.25 C 15.265625 1.25 12.378906 0.78125 9.640625 -0.15625 C 6.910156 -1.101562 4.941406 -2.046875 3.734375 -2.984375 L 1.90625 -4.46875 L 7.875 -14.5 C 8.3125 -14.101562 8.890625 -13.644531 9.609375 -13.125 C 10.328125 -12.601562 11.625 -11.882812 13.5 -10.96875 C 15.375 -10.0625 17.003906 -9.609375 18.390625 -9.609375 C 21.421875 -9.609375 22.9375 -10.628906 22.9375 -12.671875 C 22.9375 -13.609375 22.550781 -14.335938 21.78125 -14.859375 C 21.007812 -15.390625 19.695312 -15.984375 17.84375 -16.640625 C 16 -17.304688 14.550781 -17.914062 13.5 -18.46875 C 10.851562 -19.84375 8.753906 -21.398438 7.203125 -23.140625 C 5.660156 -24.878906 4.890625 -27.1875 4.890625 -30.0625 C 4.890625 -34.363281 6.554688 -37.710938 9.890625 -40.109375 C 13.234375 -42.515625 17.75 -43.71875 23.4375 -43.71875 Z M 23.4375 -43.71875 "/></g></g></g><g fill="#000000" fill-opacity="1"><g transform="translate(107.773253, 207.808213)"><g><path d="M 48.6875 -37.21875 C 52.664062 -32.882812 54.65625 -27.570312 54.65625 -21.28125 C 54.65625 -14.988281 52.664062 -9.660156 48.6875 -5.296875 C 44.71875 -0.929688 39.671875 1.25 33.546875 1.25 C 27.910156 1.25 23.269531 -0.519531 19.625 -4.0625 L 19.625 21.53125 L 4.96875 21.53125 L 4.96875 -42.484375 L 19.46875 -42.484375 L 19.46875 -37.6875 L 19.625 -37.6875 C 23.269531 -41.707031 27.910156 -43.71875 33.546875 -43.71875 C 39.671875 -43.71875 44.71875 -41.550781 48.6875 -37.21875 Z M 36.234375 -14.078125 C 38.140625 -15.953125 39.09375 -18.351562 39.09375 -21.28125 C 39.09375 -24.207031 38.179688 -26.59375 36.359375 -28.4375 C 34.535156 -30.289062 32.132812 -31.21875 29.15625 -31.21875 C 26.28125 -31.21875 23.914062 -30.28125 22.0625 -28.40625 C 20.21875 -26.53125 19.296875 -24.15625 19.296875 -21.28125 C 19.296875 -18.351562 20.25 -15.953125 22.15625 -14.078125 C 24.0625 -12.203125 26.394531 -11.265625 29.15625 -11.265625 C 31.96875 -11.265625 34.328125 -12.203125 36.234375 -14.078125 Z M 36.234375 -14.078125 "/></g></g></g><g fill="#000000" fill-opacity="1"><g transform="translate(157.869293, 207.808213)"><g><path d="M 7.859375 -5.25 C 3.890625 -9.59375 1.90625 -14.910156 1.90625 -21.203125 C 1.90625 -27.492188 3.890625 -32.816406 7.859375 -37.171875 C 11.835938 -41.535156 16.890625 -43.71875 23.015625 -43.71875 C 28.648438 -43.71875 33.289062 -41.953125 36.9375 -38.421875 L 36.9375 -42.484375 L 51.59375 -42.484375 L 51.59375 0 L 37.09375 0 L 37.09375 -4.796875 L 36.9375 -4.796875 C 33.289062 -0.765625 28.648438 1.25 23.015625 1.25 C 16.890625 1.25 11.835938 -0.914062 7.859375 -5.25 Z M 20.328125 -28.40625 C 18.421875 -26.53125 17.46875 -24.128906 17.46875 -21.203125 C 17.46875 -18.273438 18.378906 -15.882812 20.203125 -14.03125 C 22.023438 -12.1875 24.425781 -11.265625 27.40625 -11.265625 C 30.28125 -11.265625 32.640625 -12.203125 34.484375 -14.078125 C 36.335938 -15.953125 37.265625 -18.328125 37.265625 -21.203125 C 37.265625 -24.128906 36.3125 -26.53125 34.40625 -28.40625 C 32.5 -30.28125 30.164062 -31.21875 27.40625 -31.21875 C 24.59375 -31.21875 22.234375 -30.28125 20.328125 -28.40625 Z M 20.328125 -28.40625 "/></g></g></g><g fill="#000000" fill-opacity="1"><g transform="translate(207.965333, 207.808213)"><g><path d="M 4.96875 0 L 4.96875 -42.484375 L 19.625 -42.484375 L 19.625 -36.359375 L 19.796875 -36.359375 C 19.898438 -36.578125 20.078125 -36.851562 20.328125 -37.1875 C 20.578125 -37.519531 21.113281 -38.097656 21.9375 -38.921875 C 22.769531 -39.753906 23.65625 -40.5 24.59375 -41.15625 C 25.53125 -41.820312 26.742188 -42.414062 28.234375 -42.9375 C 29.722656 -43.457031 31.242188 -43.71875 32.796875 -43.71875 C 34.398438 -43.71875 35.972656 -43.5 37.515625 -43.0625 C 39.054688 -42.625 40.1875 -42.179688 40.90625 -41.734375 L 42.0625 -41.078125 L 35.9375 -28.65625 C 34.113281 -30.195312 31.578125 -30.96875 28.328125 -30.96875 C 26.554688 -30.96875 25.035156 -30.582031 23.765625 -29.8125 C 22.492188 -29.039062 21.597656 -28.101562 21.078125 -27 C 20.554688 -25.894531 20.179688 -24.953125 19.953125 -24.171875 C 19.734375 -23.398438 19.625 -22.796875 19.625 -22.359375 L 19.625 0 Z M 4.96875 0 "/></g></g></g><g fill="#000000" fill-opacity="1"><g transform="translate(242.742518, 207.808213)"><g><path d="M 53.5 -42.484375 L 33.296875 -22.1875 L 55.484375 0 L 36.609375 0 L 19.625 -16.984375 L 19.625 0 L 4.96875 0 L 4.96875 -71.21875 L 19.625 -71.21875 L 19.625 -27.65625 L 34.453125 -42.484375 Z M 53.5 -42.484375 "/></g></g></g><g fill="#000000" fill-opacity="1"><g transform="translate(289.774779, 207.808213)"><g><path d="M 14.40625 -17.71875 C 17.0625 -17.71875 19.3125 -16.789062 21.15625 -14.9375 C 23.007812 -13.09375 23.9375 -10.847656 23.9375 -8.203125 C 23.9375 -5.609375 23.007812 -3.382812 21.15625 -1.53125 C 19.3125 0.320312 17.0625 1.25 14.40625 1.25 C 11.8125 1.25 9.585938 0.320312 7.734375 -1.53125 C 5.890625 -3.382812 4.96875 -5.609375 4.96875 -8.203125 C 4.96875 -10.847656 5.890625 -13.09375 7.734375 -14.9375 C 9.585938 -16.789062 11.8125 -17.71875 14.40625 -17.71875 Z M 14.40625 -17.71875 "/></g></g></g><g clip-path="url(#ba042143e5)"><path fill="#e4e1da" d="M 223.355469 184.730469 L 212.777344 184.730469 C 194.667969 180.8125 190.640625 176.769531 186.722656 158.632812 L 186.722656 148.46875 L 185.386719 148.46875 L 185.386719 158.738281 C 181.472656 176.785156 177.425781 180.820312 159.355469 184.730469 L 151.636719 184.730469 L 151.636719 186.066406 L 159.355469 186.066406 C 177.425781 189.980469 181.472656 194.011719 185.386719 212.058594 L 185.386719 222.140625 L 186.722656 222.140625 L 186.722656 212.164062 C 190.640625 194.027344 194.667969 189.988281 212.777344 186.066406 L 223.355469 186.066406 Z M 223.355469 184.730469 " fill-opacity="1" fill-rule="nonzero"/></g></svg>