<svg xmlns="http://www.w3.org/2000/svg" xmlns:xlink="http://www.w3.org/1999/xlink" width="500" zoomAndPan="magnify" viewBox="0 0 375 374.999991" height="500" preserveAspectRatio="xMidYMid meet" version="1.0"><defs><clipPath id="3949ee1e64"><path d="M 62.542969 175.390625 L 330.554688 175.390625 L 330.554688 353.890625 L 62.542969 353.890625 Z M 62.542969 175.390625 " clip-rule="nonzero"/></clipPath><clipPath id="f995408d5d"><path d="M 44.8125 29.191406 L 318.71875 29.191406 L 318.71875 357.878906 L 44.8125 357.878906 Z M 44.8125 29.191406 " clip-rule="nonzero"/></clipPath></defs><path fill="#000000" d="M 278.917969 54.765625 C 278.953125 54.605469 278.960938 54.558594 278.917969 54.765625 Z M 108.265625 109.734375 C 108.257812 109.742188 108.25 109.75 108.273438 109.726562 C 108.265625 109.734375 108.265625 109.734375 108.265625 109.734375 Z M 267.460938 131.824219 C 267.449219 131.644531 267.449219 131.675781 267.460938 131.824219 Z M 120.449219 217.117188 C 120.535156 217.199219 120.464844 217.128906 120.375 217.050781 Z M 187.03125 227.007812 C 186.757812 227.023438 186.816406 227.019531 187.03125 227.007812 Z M 187.171875 227 C 187.019531 227.007812 187.019531 227.007812 187.171875 227 Z M 168.304688 219.277344 C 171.121094 220.003906 168.210938 223.0625 164.820312 224.332031 C 161.375 222.421875 164.121094 218.585938 168.304688 219.277344 Z M 171.148438 180.488281 C 170.871094 180.507812 170.933594 180.5 171.148438 180.488281 Z M 166.796875 175.003906 C 166.722656 175.03125 166.71875 175.03125 166.796875 175.003906 Z M 172.847656 173.273438 C 172.820312 173.273438 172.757812 173.300781 172.847656 173.273438 Z M 172.984375 173.160156 C 172.921875 173.234375 172.871094 173.273438 172.984375 173.160156 Z M 172.949219 173.105469 C 172.90625 173.203125 172.835938 173.324219 172.949219 173.105469 Z M 190.265625 164.707031 C 190.339844 164.722656 190.414062 164.738281 190.488281 164.753906 Z M 185.667969 164.128906 C 187.039062 164.1875 196.726562 165.253906 184.25 164.382812 C 179.625 164.058594 181.675781 164.15625 181.414062 164.167969 C 182.832031 164.09375 184.246094 164.070312 185.667969 164.128906 Z M 172.367188 162.496094 C 172.277344 162.5 171.820312 162.523438 172.367188 162.496094 Z M 158.78125 161.046875 C 158.789062 161.15625 158.785156 161.128906 158.78125 161.046875 Z M 158.8125 161.019531 C 158.839844 161.085938 158.832031 161.070312 158.8125 161.019531 Z M 158.835938 160.984375 C 158.859375 161.023438 158.859375 161.027344 158.835938 160.984375 Z M 254.140625 159.402344 C 253.992188 159.574219 253.941406 159.625 254.140625 159.402344 Z M 176.160156 158.199219 C 176.121094 158.390625 176.117188 158.402344 176.160156 158.199219 Z M 65.769531 149.886719 C 65.71875 150.121094 65.714844 150.128906 65.769531 149.886719 Z M 266.796875 143.894531 C 266.757812 144.070312 266.765625 144.027344 266.796875 143.894531 Z M 118.957031 125.03125 C 118.761719 125.097656 118.808594 125.078125 118.957031 125.03125 Z M 114.714844 124.367188 C 114.75 124.46875 114.742188 124.453125 114.714844 124.367188 Z M 115.375 120.027344 C 115.339844 120.109375 115.324219 120.136719 115.375 120.027344 Z M 187.945312 118.285156 C 187.839844 118.324219 187.832031 118.324219 187.945312 118.285156 Z M 59.757812 113.484375 C 59.5625 113.703125 59.507812 113.75 59.757812 113.484375 Z M 131.074219 104.753906 C 130.910156 104.863281 130.910156 104.863281 131.074219 104.753906 Z M 203.140625 99.839844 C 196.191406 103.890625 189.78125 103.53125 203.140625 99.839844 Z M 122.695312 98.324219 C 122.613281 98.378906 122.613281 98.378906 122.695312 98.324219 Z M 139.867188 95.28125 C 139.875 95.398438 139.875 95.425781 139.867188 95.28125 Z M 269.859375 95.058594 C 269.824219 95.226562 269.824219 95.230469 269.859375 95.058594 Z M 136.511719 92.148438 C 136.335938 92.160156 136.363281 92.15625 136.511719 92.148438 Z M 221.089844 81.15625 C 221.039062 81.253906 221.035156 81.261719 221.089844 81.15625 Z M 240.398438 69.34375 C 245.535156 68.34375 249.65625 67.832031 254.203125 65.058594 C 255.09375 64.507812 252.90625 66.003906 252.628906 66.179688 C 243.28125 72.152344 228.03125 75.5625 222.113281 79.332031 C 226.164062 72.625 231.738281 71.035156 240.398438 69.34375 Z M 259.292969 60.523438 C 259.277344 60.546875 259.25 60.578125 259.292969 60.523438 Z M 265.621094 51.160156 C 265.546875 51.296875 265.558594 51.269531 265.621094 51.160156 Z M 274.847656 39.113281 C 271.976562 44.363281 271.140625 44.636719 274.847656 39.113281 Z M 280.378906 32.398438 C 282.261719 40.460938 278.550781 56.550781 278.917969 54.765625 C 274.128906 76.796875 263.261719 95.125 266.128906 118.878906 C 267.59375 130.984375 270.304688 147.414062 260.28125 154.242188 C 257.242188 156.152344 253.703125 154.128906 250.1875 160.953125 C 246.585938 167.957031 250.027344 169 240.269531 182.433594 C 232.195312 193.554688 220.753906 203.070312 211.753906 211.648438 C 204.359375 218.6875 197.375 226.304688 187.035156 227.007812 C 181.625 227.28125 173.007812 226.753906 168.042969 225.476562 C 171.957031 223.152344 173.480469 218.582031 169.480469 217.113281 C 166.804688 216.136719 161.578125 217.292969 160.914062 221.492188 C 160.757812 222.421875 161.050781 224.175781 161.90625 225.113281 C 151.816406 227.109375 127.925781 223.925781 120.449219 217.117188 C 108.15625 206.128906 102.804688 191.101562 84.234375 183.867188 C 75.152344 180.324219 72.957031 179.960938 69.886719 172.191406 C 67.027344 164.9375 61.960938 165.746094 59.117188 161.773438 C 58.476562 160.667969 57.863281 158.429688 58.554688 156.882812 C 61.492188 151.894531 71.941406 158.625 74.390625 140.195312 C 74.644531 138.246094 84.363281 139.714844 91.222656 133.613281 C 99.746094 126 100.683594 114.757812 115.390625 103.519531 C 120.140625 99.898438 135.730469 88.550781 139.265625 93.304688 C 143.808594 101.003906 120.925781 108.214844 114.132812 117.515625 C 110.992188 121.800781 110.664062 130.417969 120.144531 127.148438 C 130.402344 123.613281 151.304688 105.972656 159.300781 100.691406 C 162.605469 98.558594 169.070312 95.980469 174.160156 95.617188 C 184.792969 95.234375 181.445312 103.175781 190.257812 105.007812 C 190.191406 105.261719 189.167969 117.070312 188.480469 118.039062 C 188.003906 118.425781 186.058594 118.625 182.40625 119.824219 C 177.886719 121.292969 171.128906 121.640625 169.910156 127.457031 C 168.546875 133.9375 173.839844 137.097656 175.550781 139.53125 C 178.582031 144.425781 175.394531 150.5 173.789062 157.871094 C 169.242188 156.625 164.28125 154.441406 160.042969 156.625 C 158.421875 157.453125 155.90625 159.578125 156.460938 161.519531 C 157.28125 164.28125 163.429688 164.6875 166.769531 164.90625 C 169.523438 165.082031 168.636719 164.667969 167.625 165.652344 C 166.703125 166.546875 166.277344 168.402344 166.953125 169.722656 C 167.925781 171.621094 170.855469 171.828125 172.625 172.183594 C 173.082031 172.300781 173.058594 172.1875 172.941406 172.972656 C 172.855469 173.277344 172.972656 173.265625 172.027344 173.132812 C 169.324219 172.734375 168.429688 173.878906 167.414062 174.734375 C 166.117188 175.441406 162.660156 175.261719 162.679688 177.582031 C 162.699219 179.320312 165.589844 182.613281 169.8125 182.886719 C 174.339844 183.171875 177.695312 180.710938 184.332031 183.929688 C 185.011719 184.316406 184.933594 184.261719 184.605469 184.496094 C 179.578125 187.53125 165.488281 188.324219 166.96875 195.273438 C 167.464844 197.601562 169.980469 199.867188 171.15625 201.570312 C 171.789062 202.585938 172.179688 203.140625 168.519531 203.945312 C 166.910156 204.285156 167.476562 206.628906 168.976562 206.304688 C 180.007812 203.910156 169.671875 197.875 169.269531 194.425781 C 169.269531 189.832031 186.074219 189.011719 187.335938 184.871094 C 188.050781 182.519531 184.757812 181.363281 182.445312 180.667969 C 175.539062 178.589844 173.320312 181.203125 168.683594 180.324219 C 166.710938 179.785156 165.179688 177.867188 165.25 177.839844 C 170.074219 176.441406 168.136719 177.066406 169.898438 175.753906 C 171.3125 174.984375 172.402344 176.027344 173.851562 175.457031 C 175.4375 174.832031 175.890625 171.835938 175.007812 170.746094 C 173.902344 169.375 170.078125 169.851562 169.101562 168.632812 C 166.800781 164.253906 188.996094 167.8125 195.300781 167.136719 C 198.390625 166.804688 198.03125 165 196.917969 164.480469 C 185.285156 159.058594 177.019531 163.390625 165.730469 162.414062 C 164.644531 162.320312 159.609375 161.878906 158.796875 160.894531 C 158.953125 160.410156 160.246094 159.042969 161.980469 158.398438 C 167.871094 156.75 175.320312 162.828125 175.917969 159.433594 C 176.398438 156.773438 177.453125 153.570312 178.234375 150.488281 C 182.171875 134.949219 172.804688 137.882812 172.140625 129.652344 C 171.996094 123.828125 176.546875 124.164062 188.507812 120.613281 C 190.527344 120.007812 190.832031 119.089844 191.140625 117.359375 C 192.765625 108.152344 192.128906 108.117188 192.542969 105.789062 C 192.878906 104.449219 195.960938 106.742188 204.105469 102.066406 C 209.773438 98.808594 215.382812 93.15625 218.398438 87.019531 C 225.472656 72.628906 252.984375 79.714844 267.160156 53.355469 C 279.972656 39.496094 278.640625 34.0625 280.378906 32.398438 Z M 274.886719 25.65625 C 277.839844 26.40625 278.015625 28.828125 277.523438 31.875 C 270.789062 39.011719 267.511719 47.695312 265.214844 51.921875 C 248.359375 69.949219 247.527344 63.710938 231.34375 69.148438 C 224.386719 71.480469 221.339844 75.117188 218.269531 81.457031 C 216.632812 84.839844 218.664062 81.351562 214.261719 87.003906 C 211.890625 90.050781 209.003906 94.011719 205.855469 96.152344 C 202.984375 97.929688 196.113281 98.488281 192.015625 102.144531 C 191.210938 102.859375 191.65625 102.839844 190.722656 102.664062 C 184.535156 101.234375 185.613281 95.804688 179.328125 93.792969 C 173.671875 91.996094 165.023438 94.78125 159.777344 97.605469 C 152.527344 101.5 123.667969 126.714844 115.796875 125.46875 C 113.765625 124.917969 114.152344 120.992188 117.109375 117.65625 C 119.410156 115.183594 122.238281 113.25 125.050781 111.410156 L 124.792969 111.582031 C 133.015625 106.230469 141.933594 101.699219 142.253906 95.644531 C 142.457031 91.878906 139.785156 88.695312 133.886719 90.132812 C 127.113281 91.785156 117.496094 98.8125 112.046875 103.0625 C 104.671875 108.875 102.289062 113.371094 97.128906 121.726562 C 87.863281 136.726562 85.433594 134.398438 74.628906 137.125 C 75.066406 118.738281 63.527344 123.425781 58.828125 122.539062 C 54.425781 121.371094 56.644531 116.960938 59.765625 113.472656 C 93.613281 76.964844 148.816406 69.503906 194.949219 51.484375 C 201.558594 48.902344 205.875 46.84375 215.371094 43.089844 C 236.574219 34.695312 269.152344 24.609375 274.886719 25.65625 Z M 271.035156 23.21875 C 267.535156 23.585938 237.324219 30.949219 201.335938 46.289062 C 158.703125 64.441406 115.535156 69.445312 78.820312 94.550781 C 73.355469 98.289062 59.867188 108.898438 56.007812 114.304688 C 52.621094 119.054688 53.773438 122.816406 56.796875 124.347656 C 60.65625 126.296875 66.152344 123.699219 69.15625 126.289062 C 71.949219 129 72.40625 134.054688 72.183594 137.875 C 63.171875 141.230469 61.707031 154.292969 65.238281 151.273438 C 66.160156 150.492188 65.898438 143.5625 71.902344 140.613281 C 71.546875 143.027344 70.863281 145.519531 69.773438 147.695312 C 67.394531 152.136719 65.734375 150.835938 59.992188 152.925781 C 56.574219 154.175781 55.199219 156.695312 56.117188 160.597656 C 57.457031 166.453125 63.617188 166.667969 66.425781 170.609375 C 68.554688 174.054688 68.191406 176.539062 71.292969 179.695312 C 75.773438 184.25 81.640625 184.925781 87.886719 188.109375 C 103.101562 196.152344 110.117188 212.789062 120.90625 220.636719 C 126.917969 225.027344 149.207031 229.878906 162.09375 227.527344 C 167.082031 226.617188 161.808594 226.625 169.089844 228.167969 C 175.027344 229.414062 184.449219 229.722656 188.480469 229.289062 C 198.441406 228.21875 205.441406 221.480469 227.519531 200.21875 C 235.191406 192.828125 243.75 183.425781 248.410156 173.84375 C 251.558594 167.363281 250.355469 158.886719 258.421875 157.53125 C 261.164062 157.070312 263.65625 154.90625 265.378906 152.789062 C 274.441406 141.679688 266.839844 120.632812 268.324219 104.683594 C 270.265625 84.023438 288.457031 46.804688 282.054688 29.699219 C 281.824219 29.070312 280.828125 28.75 280.191406 29.308594 C 279.863281 29.589844 281.191406 22.152344 271.035156 23.21875 " fill-opacity="1" fill-rule="nonzero"/><g clip-path="url(#3949ee1e64)"><path fill="#000000" d="M 117.726562 343.03125 C 117.972656 343.085938 117.917969 343.078125 117.726562 343.03125 Z M 87.828125 330.339844 C 88.015625 330.441406 88.015625 330.441406 87.828125 330.339844 Z M 216.222656 327.398438 L 216.125 327.460938 Z M 69.273438 317.90625 C 69.453125 318.070312 69.410156 318.035156 69.273438 317.90625 Z M 209.390625 317.082031 C 209.113281 317.261719 209.113281 317.261719 209.390625 317.082031 Z M 235.070312 305.9375 C 227.914062 317.015625 213.171875 336.558594 203.210938 327.941406 C 195.726562 320.691406 223.324219 309.464844 235.070312 305.9375 Z M 75.796875 295.359375 C 75.691406 295.472656 75.691406 295.472656 75.796875 295.359375 Z M 265.441406 291.96875 C 265.449219 292.097656 265.449219 292.109375 265.441406 291.96875 Z M 265.429688 291.746094 C 265.433594 291.878906 265.433594 291.886719 265.429688 291.746094 Z M 193.710938 288.191406 C 193.847656 288.21875 193.855469 288.222656 193.710938 288.191406 Z M 324.457031 285.261719 C 324.566406 285.3125 324.542969 285.304688 324.457031 285.261719 Z M 169.289062 281.351562 C 173.058594 282.214844 176.800781 283.96875 180.578125 285.734375 C 180.230469 286.125 180.320312 286.417969 180.222656 286.996094 C 179.398438 289.625 174.894531 287.738281 164.695312 287.65625 C 151.261719 287.539062 158.441406 279.175781 169.289062 281.351562 Z M 307.417969 279.992188 C 307.691406 280.050781 307.625 280.035156 307.417969 279.992188 Z M 88.109375 275.886719 C 88.0625 275.972656 88.0625 275.980469 88.109375 275.886719 Z M 267.914062 274.585938 C 261.660156 280.546875 267.359375 292.746094 264.574219 294.769531 C 262.125 296.242188 251.132812 298.9375 240.375 301.910156 C 244.449219 294.9375 251.40625 278.078125 267.914062 274.585938 Z M 235.550781 225.855469 C 235.527344 225.976562 235.519531 226.011719 235.550781 225.855469 Z M 242.078125 176.230469 C 236.152344 194.519531 239.425781 212.753906 234.449219 230.253906 C 231.742188 239.78125 223.21875 242.132812 217.167969 248.933594 C 206.300781 261.136719 215.433594 279.589844 205.953125 286.117188 C 200.097656 289.855469 194.5 288.941406 188.074219 286.4375 C 189.21875 285.878906 188.777344 284.21875 187.636719 284.167969 C 186.363281 284.109375 185.132812 284.34375 183.898438 284.652344 C 175.121094 280.636719 169.574219 277.34375 161.792969 279.074219 C 157.222656 280.09375 153.574219 282.863281 155.589844 286.898438 C 157.210938 290.109375 162.761719 290.089844 166.316406 290.042969 C 173.269531 289.960938 181.378906 292.949219 182.570312 287.492188 C 184.089844 287.101562 183.222656 287.007812 185.800781 288.101562 C 193.824219 291.511719 201.789062 292.726562 208.554688 287.183594 C 216.136719 280.980469 211.304688 264.394531 216 254.816406 C 220.742188 245.867188 229.675781 244.105469 234.695312 235.742188 C 238.878906 228.757812 239.746094 213.257812 240.21875 205.351562 C 240.820312 195.152344 239.261719 206.433594 245.632812 222.730469 C 254.628906 245.714844 260.609375 263.070312 273.996094 271.421875 C 275.105469 272.117188 266.285156 269.890625 255.601562 277.5625 C 247.609375 283.304688 243.082031 292.027344 240.273438 297.226562 C 235.285156 306.375 239.632812 300.527344 221.523438 308.15625 C 214.476562 311.128906 199.023438 318.292969 199.503906 325.929688 C 199.828125 330.992188 213.777344 345.035156 238.570312 304.914062 C 266.433594 296.976562 268.320312 298.363281 267.78125 291.164062 C 266.261719 270.535156 268.800781 271.789062 307.316406 279.96875 C 307.289062 279.964844 327.515625 283.648438 328.199219 289.226562 C 328.207031 291.988281 324.585938 294.964844 322.421875 296.714844 C 322.074219 296.992188 310.167969 306.140625 306.9375 308.277344 C 281.070312 325.082031 262.921875 318.550781 243.152344 329.21875 C 240.183594 330.816406 237.359375 332.863281 228.933594 337.0625 C 181.144531 360.875 147.410156 349.273438 118.011719 343.09375 C 105.023438 340.234375 101.019531 334.8125 89.617188 328.582031 C 83.074219 325.003906 71.652344 322.082031 66.769531 315.054688 C 64.671875 311.742188 64.652344 308.554688 65.691406 306.3125 C 69.507812 299.53125 74.890625 306.882812 90.289062 276.867188 C 96.796875 264.207031 96.394531 252.34375 92.863281 238.746094 C 84.089844 204.789062 78.796875 203.113281 75.226562 193 C 71.851562 182.5625 77.855469 178.019531 75.117188 177.019531 C 74.5 176.796875 73.796875 177.125 73.574219 177.742188 C 67.71875 194.050781 76.710938 195.136719 86.96875 227.558594 C 91.675781 242.449219 95.820312 255.453125 90.515625 270.375 C 88.675781 275.589844 80.152344 290.464844 75.859375 295.289062 C 71.5625 299.902344 68.167969 299.867188 64.992188 303.21875 C 61.84375 306.539062 61.460938 312.589844 65.921875 317.90625 C 69.78125 322.519531 77.0625 325.609375 82.609375 327.980469 C 97.65625 334.4375 101.671875 341.535156 115.804688 345.039062 C 115.839844 345.050781 145.789062 352.148438 159.703125 353.363281 C 208.863281 357.660156 239.710938 332.175781 252.316406 327.859375 C 263.378906 324.222656 273.90625 324.09375 286.207031 320.480469 C 302.523438 315.699219 311.269531 308.257812 322.527344 299.6875 C 340.328125 286.101562 326.019531 281.242188 304.113281 276.871094 C 278.585938 271.777344 268.886719 274.425781 254.679688 238.757812 C 247.707031 221.253906 243.4375 213.117188 242.535156 197.332031 C 241.886719 183.480469 244.789062 177.144531 244.289062 176.117188 C 243.824219 175.136719 242.386719 175.269531 242.078125 176.230469 " fill-opacity="1" fill-rule="nonzero"/></g><path fill="#000000" d="M 246.152344 32.078125 C 246.207031 32.0625 246.214844 32.058594 246.152344 32.078125 Z M 260.28125 60.925781 C 260.320312 60.914062 260.316406 60.914062 260.28125 60.925781 Z M 193.351562 125.542969 C 193.28125 125.554688 193.582031 125.53125 193.351562 125.542969 Z M 187.3125 160.460938 C 187.417969 160.453125 187.523438 160.445312 187.3125 160.460938 Z M 172.667969 205.523438 C 172.71875 205.566406 172.734375 205.585938 172.667969 205.523438 Z M 167.964844 200.765625 C 167.824219 200.8125 167.816406 200.816406 167.964844 200.765625 Z M 173.933594 187.992188 C 173.871094 188.066406 173.894531 188.035156 173.933594 187.992188 Z M 168.289062 177.140625 C 168.1875 177.148438 168.1875 177.148438 168.289062 177.140625 Z M 172.019531 171.09375 C 172.101562 171.109375 172.234375 171.136719 172.019531 171.09375 Z M 180.925781 169.359375 C 181.023438 169.378906 180.996094 169.378906 180.925781 169.359375 Z M 166.785156 167.882812 C 166.703125 167.972656 166.691406 167.984375 166.785156 167.882812 Z M 201.4375 163.875 C 201.320312 163.882812 201.320312 163.882812 201.4375 163.875 Z M 153.046875 163.324219 C 152.953125 163.433594 152.96875 163.410156 153.046875 163.324219 Z M 181.015625 162.636719 C 180.808594 162.710938 180.855469 162.691406 181.015625 162.636719 Z M 197.078125 161.824219 C 198.78125 162.210938 200.15625 162.773438 201.503906 163.871094 C 191.960938 164.339844 190.074219 160.96875 182.816406 168.371094 C 181.679688 169.519531 182.234375 169.582031 180.824219 169.339844 C 177.605469 168.628906 174.453125 166.203125 171.386719 165.421875 C 176.53125 165.015625 181.804688 164.53125 183.835938 162.640625 C 184.820312 161.714844 183.507812 162.023438 186.097656 161.902344 C 189.648438 161.734375 193.445312 161.128906 197.078125 161.824219 Z M 156.023438 160.832031 C 155.875 160.9375 155.824219 160.964844 156.023438 160.832031 Z M 180.496094 160.234375 C 180.679688 160.261719 180.738281 160.28125 180.496094 160.234375 Z M 180.285156 159.441406 C 180.386719 159.460938 180.394531 159.460938 180.285156 159.441406 Z M 177.730469 159.195312 C 178.1875 159.199219 178.09375 159.183594 178.210938 159.304688 C 178.507812 159.613281 178.976562 159.617188 179.257812 159.289062 C 180.355469 159.410156 182.128906 159.851562 182.808594 160.527344 C 181.074219 160.417969 179.226562 160.0625 177.730469 159.195312 Z M 168.902344 156.535156 L 168.851562 156.539062 Z M 173.265625 156.78125 C 174.265625 156.992188 175.472656 157.363281 176.359375 157.875 C 173.507812 158.113281 175.761719 160 178.558594 161.085938 C 181.667969 162.296875 184.339844 161.445312 181.03125 162.632812 C 175.222656 164.472656 151.230469 165.429688 152.957031 163.425781 C 157.238281 158.765625 166.453125 155.550781 173.265625 156.78125 Z M 178.082031 144.207031 C 177.980469 144.398438 178.019531 144.316406 178.082031 144.207031 Z M 179.199219 143.246094 C 179.121094 143.308594 179.082031 143.328125 179.199219 143.246094 Z M 179.894531 141.203125 C 179.777344 141.28125 179.804688 141.261719 179.894531 141.203125 Z M 180.953125 140.230469 C 180.921875 140.289062 180.914062 140.300781 180.953125 140.230469 Z M 181.0625 139.949219 C 181.039062 140.082031 181.023438 140.140625 181.0625 139.949219 Z M 181.085938 139.609375 C 181.105469 139.773438 181.109375 139.917969 181.085938 139.609375 Z M 181.0625 139.445312 C 181.09375 139.527344 181.09375 139.527344 181.0625 139.445312 Z M 179.703125 136.285156 C 179.734375 136.375 179.71875 136.335938 179.703125 136.285156 Z M 175.96875 126.800781 C 175.792969 126.652344 175.730469 126.691406 176.257812 126.707031 C 176.117188 127.046875 176.414062 127.1875 175.96875 126.800781 Z M 180.722656 126.3125 C 180.667969 126.332031 180.664062 126.332031 180.722656 126.3125 Z M 82.3125 125.101562 C 82.289062 125.191406 82.292969 125.171875 82.3125 125.101562 Z M 190.949219 124.300781 C 191.679688 124.328125 192.332031 124.242188 185.402344 124.890625 C 187.660156 124.355469 189.339844 124.242188 190.949219 124.300781 Z M 161.21875 123.980469 C 161.289062 123.996094 161.292969 123.996094 161.21875 123.980469 Z M 82.445312 122.3125 C 82.453125 122.40625 82.449219 122.386719 82.445312 122.3125 Z M 163.410156 122.257812 C 164.667969 122.542969 165.554688 122.953125 166.59375 123.46875 C 169.871094 125.140625 169.320312 124.828125 168.679688 124.789062 C 165.902344 124.617188 163.980469 124.519531 161.125 123.960938 C 158.308594 123.371094 158.738281 123.457031 159.328125 123.054688 C 160.605469 122.242188 161.726562 121.976562 163.410156 122.257812 Z M 60.632812 114.585938 C 60.636719 114.652344 60.632812 114.640625 60.632812 114.585938 Z M 194.6875 111.578125 C 194.734375 111.703125 194.738281 111.730469 194.6875 111.578125 Z M 195.46875 104.496094 C 195.453125 104.574219 195.445312 104.589844 195.46875 104.496094 Z M 206.589844 88.46875 C 206.515625 88.554688 206.5 88.570312 206.589844 88.46875 Z M 206.644531 88.40625 C 206.59375 88.46875 206.5625 88.5 206.644531 88.40625 Z M 231.734375 76.988281 C 231.691406 77.179688 231.707031 77.09375 231.734375 76.988281 Z M 235.171875 68.679688 C 235.039062 68.828125 235.054688 68.808594 235.171875 68.679688 Z M 237.226562 67.023438 C 237.089844 67.128906 237.039062 67.15625 237.226562 67.023438 Z M 276.191406 34.820312 C 276.140625 34.886719 276.109375 34.914062 276.191406 34.820312 Z M 279.167969 33.992188 C 279.195312 34 279.199219 34 279.167969 33.992188 Z M 275.40625 31.28125 C 275.457031 31.417969 275.433594 31.371094 275.40625 31.28125 Z M 282.261719 25.890625 C 282.242188 25.957031 282.242188 25.957031 282.261719 25.890625 Z M 282.011719 23.472656 C 282.046875 23.578125 282.027344 23.527344 282.011719 23.472656 Z M 281.765625 22.847656 C 282.527344 24.660156 282.398438 25.941406 281.835938 27.191406 C 280.722656 29.308594 276.351562 32.734375 276.320312 32.707031 C 273.304688 29.757812 277.453125 24.535156 281.765625 22.847656 Z M 276.410156 20.710938 C 276.214844 20.777344 276.253906 20.761719 276.410156 20.710938 Z M 279.605469 18.457031 C 270.117188 19.953125 266.398438 27.324219 224.519531 38.6875 C 161.640625 55.753906 135.0625 51.070312 83.636719 88.148438 C 73.046875 95.777344 51.433594 112.027344 62.144531 119.503906 C 69.328125 124.5 79.195312 116.859375 81.902344 120.53125 C 82.847656 122.105469 82.554688 125.050781 81.6875 126.859375 C 80.066406 130.003906 77.394531 132.609375 78.476562 134.675781 C 79.554688 136.789062 87.675781 136.839844 86.105469 135.023438 C 85.566406 134.414062 84.246094 135.257812 81.066406 134.703125 C 76.925781 133.75 83.050781 129.816406 83.714844 124.886719 C 85.371094 112.78125 72.695312 120.957031 66.355469 119.863281 C 57.929688 117.957031 59.886719 111.605469 65.691406 105.019531 C 64.644531 106.226562 70.15625 98.699219 91.675781 84.210938 C 89.554688 85.617188 112.894531 69.144531 136.777344 61.183594 C 165.613281 51.21875 233.757812 42.625 266.773438 25.152344 C 271.054688 22.894531 279.816406 18.167969 284.183594 20.148438 C 289.964844 23.300781 282.207031 30.222656 279.382812 34.035156 C 278.914062 33.949219 278.191406 33.746094 277.570312 33.484375 C 281.355469 30.089844 285.589844 27.664062 282.753906 21.691406 C 281.792969 19.652344 270.847656 27.292969 274.675781 32.886719 C 275.617188 34.265625 275.6875 32.9375 274.007812 35.421875 C 271.355469 39.339844 271.214844 43.039062 270.441406 46.894531 C 265.617188 69.632812 248.5 57.753906 236.324219 65.992188 C 230.457031 69.957031 232.632812 73.914062 231.523438 77.855469 C 230.949219 79.902344 228.847656 82.019531 225.632812 82.636719 C 219.203125 83.867188 209.765625 78.648438 202.371094 92.488281 C 196.925781 102.667969 196.058594 101.164062 195.054688 101.953125 C 194.109375 102.714844 193.484375 107.144531 193.695312 108.746094 C 193.917969 110.507812 194.980469 111.285156 194.769531 112.722656 C 192.765625 120.402344 180.613281 119.179688 176.914062 125.351562 C 169.851562 125.25 168.90625 122.011719 163.722656 120.929688 C 159.503906 120.023438 155.417969 123.8125 157.226562 124.371094 C 170.949219 128.601562 176.082031 121.933594 178.3125 136.171875 C 178.589844 138.871094 183.238281 138.835938 179.917969 141.183594 C 176.78125 143.21875 176.371094 143.101562 176.441406 147.082031 C 176.507812 150.296875 177.417969 153.542969 177.875 157.210938 C 168.582031 150.609375 150.195312 161.019531 150.835938 164.332031 C 151.183594 165.957031 160.230469 165.902344 161.890625 165.882812 C 170.234375 165.789062 166.804688 164.628906 164.699219 168.578125 C 163.449219 170.890625 173.289062 170.238281 174.933594 172.355469 C 175.382812 173.144531 174.570312 175.503906 171.808594 175.78125 C 168.828125 175.953125 165.203125 174.855469 164.824219 178.804688 C 164.765625 179.386719 165.496094 179.78125 165.964844 179.367188 C 166.167969 179.167969 170.757812 182.867188 172.378906 184.9375 C 172.304688 185.671875 173.160156 185.792969 174.105469 186.042969 C 172.648438 187.050781 171.785156 188.5 171.066406 189.945312 C 168.703125 194.695312 172.132812 197.230469 170.515625 199.328125 C 168.816406 201.078125 166.117188 200.671875 166.769531 201.972656 C 167 202.445312 171.921875 204.378906 173.316406 206.210938 C 173.859375 206.929688 177.3125 205.949219 169.140625 201.78125 C 172.046875 200.617188 172.757812 199.113281 172.132812 196.429688 C 171.445312 193.421875 171.085938 192.972656 172.523438 190.078125 C 172.109375 190.996094 173.316406 187.660156 175.941406 186.648438 C 177.808594 186.0625 184.230469 187.859375 189.914062 183.710938 C 190.453125 183.316406 190.03125 182.234375 189.152344 182.582031 C 186.824219 183.464844 182.5625 185.089844 180.117188 184.988281 C 175.863281 184.8125 176.941406 185.503906 173.753906 184.515625 C 173.199219 183.472656 169.910156 180.519531 168.558594 179.449219 C 166.296875 177.640625 166.164062 178.28125 166.59375 177.707031 C 168.160156 176.183594 173.007812 178.511719 175.265625 175.632812 C 180.191406 169.414062 169.582031 169.695312 166.269531 168.613281 C 169.804688 163.070312 175.78125 170.414062 181.636719 170.820312 C 183.679688 170.957031 183.027344 170.179688 183.417969 169.730469 C 184.125 168.957031 187.410156 165.632812 189.660156 165.144531 C 193.347656 164.371094 206.039062 166.492188 203.558594 163.917969 C 200.277344 160.503906 196.527344 159.96875 191.820312 160.15625 C 182.414062 160.535156 185.367188 161.160156 183.847656 159.625 C 182.804688 158.554688 180.820312 158.082031 179.335938 157.90625 C 178.964844 154.074219 176.886719 145.675781 178.207031 144.058594 C 179.691406 142.5 183.039062 141.859375 182.375 139.058594 C 182.050781 137.722656 180.359375 137.246094 179.828125 136.566406 C 179.554688 136.097656 179.214844 130.546875 176.757812 127.609375 C 176.960938 127.660156 176.808594 127.695312 179.65625 126.6875 C 180.671875 126.648438 196.414062 125.355469 196.441406 125.339844 C 198.613281 124.273438 192.988281 122.21875 186.777344 123.207031 C 182.503906 123.890625 177.898438 126.183594 178.78125 125.132812 C 183.042969 120.601562 193.695312 121.164062 196.050781 113.265625 C 196.804688 110.726562 194.515625 110.296875 195.109375 106.453125 C 196.152344 99.746094 195.726562 106.242188 201.019531 97.746094 C 204.515625 92.15625 206.050781 84.953125 215.882812 84.0625 C 219.996094 83.808594 230.230469 86.21875 232.824219 78.304688 C 234.1875 74.148438 231.023438 68.667969 240.828125 65.261719 C 247.804688 62.625 257.703125 65.019531 264.289062 60.421875 C 274.203125 53.503906 270.015625 41.148438 276.507812 34.496094 C 277.5625 35.042969 278.472656 35.269531 279.644531 35.464844 C 280.179688 35.554688 280.117188 35.175781 282.285156 32.636719 C 283.945312 30.691406 285.667969 28.742188 286.765625 26.566406 C 289.113281 21.964844 286.519531 17.382812 279.605469 18.457031 " fill-opacity="1" fill-rule="nonzero"/><g clip-path="url(#f995408d5d)"><path fill="#000000" d="M 127.003906 98.855469 C 126.945312 98.875 127.164062 98.800781 127.003906 98.855469 Z M 272.859375 103.519531 C 272.847656 103.375 272.851562 103.40625 272.859375 103.519531 Z M 107.664062 115.464844 C 107.652344 115.507812 107.660156 115.492188 107.664062 115.460938 Z M 105.375 120.601562 C 105.375 120.574219 105.382812 120.558594 105.375 120.601562 Z M 66.761719 123.703125 C 66.761719 123.710938 66.742188 123.664062 66.761719 123.703125 Z M 69.503906 134.226562 C 69.5 134.222656 69.5 134.214844 69.496094 134.210938 C 69.496094 134.210938 69.5 134.21875 69.503906 134.226562 Z M 164.902344 221.851562 C 164.882812 221.796875 164.878906 221.792969 164.902344 221.851562 Z M 246.726562 224.679688 C 246.765625 224.773438 246.71875 224.652344 246.695312 224.582031 C 246.707031 224.613281 246.714844 224.648438 246.726562 224.679688 Z M 255.566406 276.007812 C 255.519531 276.027344 255.546875 276.019531 255.59375 276 C 255.585938 276.003906 255.574219 276.007812 255.566406 276.007812 Z M 282.199219 319.660156 C 282.273438 319.632812 282.242188 319.644531 282.199219 319.660156 Z M 229.460938 333.316406 C 229.519531 333.300781 229.527344 333.296875 229.460938 333.316406 Z M 179.351562 340.40625 C 179.515625 340.351562 179.5 340.355469 179.351562 340.40625 Z M 188.761719 347.058594 C 188.964844 346.984375 188.914062 347 188.761719 347.058594 Z M 137.890625 355.996094 C 137.980469 356.011719 138.007812 356.019531 137.890625 355.996094 Z M 133.421875 352.152344 C 133.359375 352.15625 133.359375 352.15625 133.421875 352.152344 Z M 119.210938 348.808594 C 117.21875 347.40625 120.09375 349.199219 122.945312 350.890625 C 121.851562 350.441406 120.671875 349.832031 119.210938 348.808594 Z M 102.203125 335.355469 C 102.417969 335.464844 102.40625 335.460938 102.203125 335.355469 Z M 96.90625 333.632812 C 96.949219 333.636719 96.984375 333.648438 96.90625 333.632812 Z M 111.292969 343.503906 C 100.929688 339.972656 91.332031 336.570312 79.4375 330.925781 C 93.757812 334.667969 100.109375 330.4375 110.203125 342 C 111.890625 343.9375 111.832031 343.6875 111.292969 343.503906 Z M 70.722656 325.820312 C 70.789062 325.882812 70.792969 325.886719 70.722656 325.820312 Z M 68.308594 324.878906 C 68.550781 325.417969 68.730469 325.421875 68.066406 325.046875 C 68.148438 324.992188 68.226562 324.9375 68.308594 324.878906 Z M 287.058594 317.292969 C 286.90625 317.398438 286.890625 317.40625 287.058594 317.292969 Z M 290.757812 313.972656 C 290.707031 314.035156 290.710938 314.019531 290.757812 313.972656 Z M 289.199219 314.21875 C 291.171875 313.792969 290.863281 313.851562 290.667969 314.070312 C 281.039062 324.652344 265.921875 320.085938 234.320312 330.25 C 202.59375 340.453125 155.113281 364.960938 130.777344 353.613281 C 146.902344 353.578125 165.726562 345.175781 179.519531 340.347656 C 179.488281 340.359375 189.496094 335.777344 232.828125 327.96875 C 278.761719 319.703125 281.277344 315.921875 289.199219 314.21875 Z M 305.304688 306.699219 C 305.292969 306.769531 305.289062 306.777344 305.304688 306.699219 Z M 193.777344 298.457031 C 193.882812 298.480469 193.890625 298.484375 193.777344 298.457031 Z M 305.25 298.941406 C 310.480469 293.558594 307.742188 295.78125 306.527344 298.558594 C 306.136719 299.449219 305.925781 301.359375 305.828125 302.304688 C 305.152344 308.988281 306.214844 309.652344 294.207031 311.867188 C 300.664062 303.3125 299.070312 305.300781 305.25 298.941406 Z M 200.917969 295.429688 C 200.832031 295.527344 200.839844 295.511719 200.917969 295.429688 Z M 176.289062 293.738281 C 176.421875 293.761719 176.449219 293.765625 176.289062 293.738281 Z M 145.195312 292.941406 C 145.105469 292.945312 145.097656 292.945312 145.195312 292.941406 Z M 166.507812 287.902344 C 166.652344 287.921875 166.664062 287.925781 166.507812 287.902344 Z M 109.878906 287.113281 C 109.882812 287.183594 109.882812 287.191406 109.878906 287.113281 Z M 161.1875 285.519531 C 161.222656 285.582031 161.222656 285.582031 161.1875 285.519531 Z M 161.09375 283.832031 C 161.085938 283.851562 161.074219 283.871094 161.066406 283.894531 Z M 206.425781 282.128906 C 206.402344 282.238281 206.398438 282.253906 206.425781 282.128906 Z M 167.65625 281.648438 C 167.746094 281.664062 167.726562 281.664062 167.65625 281.648438 Z M 167.574219 281.632812 C 169.664062 282.109375 174.542969 284.949219 167.125 288.011719 C 155.757812 286.007812 162.472656 280.742188 167.574219 281.632812 Z M 317.242188 281.300781 C 317.246094 281.367188 317.242188 281.378906 317.242188 281.300781 Z M 111.410156 294.402344 C 111.417969 291.613281 111.542969 287.234375 110.542969 280.597656 C 116.027344 285.351562 123.925781 318.277344 131.59375 334.492188 C 120.152344 321.5 111.371094 311.542969 111.410156 294.402344 Z M 311.585938 291.816406 C 317.695312 283.988281 316.246094 279.828125 316.640625 280.132812 C 317.351562 280.847656 317.332031 281.695312 317.144531 282.757812 C 315.703125 288.90625 310.378906 293.453125 309.203125 294.683594 C 310.023438 293.75 310.820312 292.796875 311.585938 291.816406 Z M 311.71875 279.359375 C 311.660156 279.363281 311.652344 279.363281 311.71875 279.359375 Z M 110.980469 279.164062 C 111.082031 279.246094 111.148438 279.308594 110.980469 279.164062 Z M 273.136719 277.746094 C 273.304688 277.777344 273.292969 277.777344 273.136719 277.746094 Z M 267.945312 274.625 C 268.050781 274.648438 268.0625 274.652344 267.945312 274.625 Z M 259.4375 274.894531 C 262.875 274.089844 262.398438 274.457031 263.011719 275.054688 C 265.421875 277.367188 243.011719 304.683594 235.128906 310.066406 C 232.683594 311.65625 230.640625 311.175781 229.671875 309.9375 C 227.613281 306.46875 233.199219 295.984375 235.472656 292.679688 C 239.304688 287.085938 245.105469 282.347656 250.21875 278.238281 C 254.191406 276.367188 256.960938 275.464844 259.4375 274.894531 Z M 271.941406 273.429688 C 272.03125 273.558594 272.058594 273.597656 271.941406 273.429688 Z M 238.289062 281.941406 C 260.046875 270.109375 255.238281 272.054688 249.484375 277.066406 C 244.128906 279.496094 235.574219 284.929688 229.21875 288.175781 C 220.695312 292.523438 232.179688 285.265625 238.289062 281.941406 Z M 94.179688 272.976562 C 94.160156 273.066406 94.148438 273.09375 94.179688 272.976562 Z M 109.050781 272.796875 C 112.101562 281.058594 111.867188 279.9375 111.097656 279.265625 C 109.683594 278 110.628906 279.441406 109.050781 272.796875 Z M 73.527344 312.378906 C 80.683594 299.332031 89.238281 285.636719 94.394531 271.765625 C 92.558594 282.726562 86.316406 292.25 80.488281 302.183594 C 76.984375 308.148438 74.445312 317.164062 69.253906 322.296875 C 69.46875 319.636719 71.796875 315.542969 73.527344 312.378906 Z M 262.765625 270.960938 C 263.566406 271.25 263.832031 272.078125 263.832031 272.933594 C 263.023438 272.964844 263.128906 273.105469 262.886719 272.464844 C 262.71875 271.898438 262.695312 271.527344 262.765625 270.960938 Z M 261.398438 270.785156 C 260.785156 275.28125 264.859375 271.0625 254.148438 275.066406 C 258.222656 271.746094 258.230469 270.867188 261.398438 270.785156 Z M 265.675781 268.726562 C 268.375 269.351562 271.125 271.851562 272.410156 274.226562 C 273.441406 276.089844 271.957031 273.472656 265.890625 272.964844 C 264.875 272.875 265.378906 273.222656 265.085938 271.824219 C 264.882812 270.894531 264.25 270.042969 263.1875 269.65625 C 263.660156 268.90625 264.195312 268.503906 265.675781 268.726562 Z M 104.476562 268.453125 C 104.488281 268.582031 104.488281 268.617188 104.476562 268.453125 Z M 209.824219 268.1875 C 209.792969 268.335938 209.792969 268.34375 209.824219 268.1875 Z M 221.542969 264.980469 C 221.496094 265.015625 221.441406 265.050781 221.542969 264.980469 Z M 105.171875 264.191406 C 106.636719 268.640625 107.769531 273.027344 108.472656 276.632812 C 105.222656 272.9375 103.363281 268.722656 105.171875 264.191406 Z M 96.515625 259.585938 C 96.5 259.667969 96.492188 259.6875 96.515625 259.585938 Z M 217.285156 257.082031 C 217.265625 257.15625 217.265625 257.15625 217.285156 257.082031 Z M 222.046875 253.640625 C 221.949219 253.675781 221.917969 253.683594 222.046875 253.640625 Z M 222.128906 253.609375 C 222.066406 253.636719 222.035156 253.640625 222.128906 253.609375 Z M 226.445312 250.101562 C 226.386719 250.167969 226.386719 250.167969 226.445312 250.101562 Z M 97.535156 245.847656 C 97.542969 245.960938 97.542969 245.964844 97.535156 245.847656 Z M 95.316406 234.773438 C 95.347656 234.855469 95.347656 234.855469 95.316406 234.773438 Z M 180.847656 225.792969 C 180.789062 225.796875 180.78125 225.796875 180.847656 225.792969 Z M 171.402344 225.613281 C 171.324219 225.617188 171.320312 225.617188 171.402344 225.613281 Z M 168.554688 225.5 C 168.679688 225.523438 168.6875 225.53125 168.554688 225.5 Z M 155.730469 225.3125 C 155.546875 225.324219 155.566406 225.320312 155.730469 225.3125 Z M 182.1875 224.34375 C 182.042969 224.351562 182.082031 224.347656 182.1875 224.34375 Z M 224.644531 252.890625 C 227.25 252.039062 228.6875 249.609375 230 247.183594 C 233.671875 240.410156 237.386719 230.441406 239.90625 223.164062 C 238.210938 228.171875 229 253.304688 226.652344 258.023438 C 226.972656 257.382812 222.308594 268.039062 218.371094 264.785156 C 216.394531 262.902344 216.613281 260.46875 217.296875 257.023438 C 217.480469 256.164062 217.289062 256.410156 218.355469 255.6875 C 217.734375 256.101562 219.179688 255.117188 220.453125 254.375 C 222.058594 253.441406 223.140625 253.390625 224.644531 252.890625 Z M 167.027344 221.886719 C 166.90625 221.972656 166.894531 221.980469 167.027344 221.886719 Z M 164.890625 221.6875 C 164.863281 221.707031 164.851562 221.710938 164.890625 221.6875 Z M 168.003906 221.394531 C 168.042969 221.445312 168.070312 221.488281 168.003906 221.394531 Z M 167.765625 221.316406 L 167.757812 221.328125 Z M 167.753906 221.3125 C 167.152344 221.878906 166.304688 222.339844 165.3125 222.84375 C 165.070312 222.367188 164.792969 221.535156 164.945312 221.976562 C 164.65625 221.324219 167.007812 221.203125 167.753906 221.3125 Z M 203.585938 220.121094 C 203.527344 220.140625 203.527344 220.140625 203.585938 220.121094 Z M 222.25 266.152344 C 226.117188 263.757812 229.597656 255.160156 231.1875 250.898438 C 238.941406 230.128906 240.921875 224.851562 243.078125 217.824219 C 248.25 235.363281 260.078125 259.671875 260.589844 264.824219 C 260.660156 266.917969 259.535156 268.351562 257.5625 270.269531 C 254.652344 271.324219 219.140625 289.722656 222.675781 292.148438 C 224.023438 293.050781 237.667969 285.082031 238.714844 284.476562 C 251.804688 276.914062 239.144531 283.203125 232.425781 294.941406 C 231.050781 297.34375 226.839844 306.007812 228.085938 309.792969 C 228.832031 312.058594 232.226562 313.699219 235.976562 311.140625 C 244.292969 305.515625 263.023438 281.894531 264.652344 276.28125 C 269 278.921875 276.9375 279.886719 282.066406 280.3125 C 302.964844 282.050781 309.757812 278.566406 315.074219 279.464844 C 316.457031 288.277344 302.5625 298.363281 294.644531 308.980469 C 290.589844 314.414062 293.882812 311.015625 285.773438 313.6875 C 239.097656 328.851562 213.828125 326.917969 178.902344 339.121094 C 166.605469 343.421875 142.523438 353.800781 127.777344 352.085938 C 123.339844 349.65625 119.070312 346.753906 114.648438 344.808594 C 113.542969 343.683594 112.808594 342.867188 111.875 341.816406 C 99.394531 327.808594 94.742188 334.203125 77.367188 328.902344 C 74.496094 328.023438 70.4375 326.601562 69.433594 324.011719 C 74.433594 319.742188 77.320312 311.515625 80.332031 305.371094 C 80.320312 305.402344 88.417969 291.28125 89.210938 289.789062 C 96.539062 276.039062 95.0625 272.464844 97.617188 260.96875 C 101.628906 242.957031 93.847656 230.15625 105.050781 261.746094 C 104.574219 261.90625 99.089844 269.507812 108.917969 279.101562 C 109.671875 283.644531 109.984375 287.503906 110.050781 291.296875 C 110.445312 313.984375 117.039062 319.742188 134.144531 339.492188 C 134.683594 340.113281 135.640625 339.410156 135.273438 338.730469 C 127.34375 323.992188 128.03125 319.136719 114.597656 283.695312 C 123.351562 289.65625 137.792969 295.636719 148.28125 293.851562 C 173.042969 289.722656 162.132812 289.164062 171.101562 289.902344 C 169.761719 292.230469 169.472656 292.535156 169.886719 292.988281 C 172.121094 295.507812 187.777344 296.144531 190.089844 297.699219 C 191.007812 298.324219 191.804688 299.523438 193.589844 299.8125 C 200.617188 301.164062 204.914062 293.007812 206.867188 286.144531 C 210.289062 274.191406 207.390625 264.804688 215.777344 257.621094 C 215.824219 257.574219 215.472656 259.019531 215.464844 260.90625 C 215.441406 265.027344 218.6875 268.363281 222.25 266.152344 Z M 85.644531 224.925781 C 84.9375 222.226562 84.40625 219.488281 84.121094 216.71875 C 95.695312 229.265625 100.261719 243.574219 96.148438 261.261719 C 95.113281 250.15625 88.515625 235.894531 85.644531 224.925781 Z M 115.074219 214.257812 C 115.195312 214.363281 115.195312 214.363281 115.074219 214.257812 Z M 241.234375 201.648438 C 241.242188 201.773438 241.242188 201.761719 241.234375 201.648438 Z M 99.0625 200.015625 C 99.160156 200.097656 99.152344 200.09375 99.0625 200.015625 Z M 241.574219 194.457031 C 241.550781 194.554688 241.550781 194.554688 241.574219 194.457031 Z M 247.226562 186.277344 C 247.320312 188.402344 246.917969 190.222656 246.617188 192.679688 C 244.921875 206.421875 246.679688 198.597656 242.636719 210.738281 C 240.695312 202.121094 239.378906 190.238281 247.226562 186.277344 Z M 71.453125 182.980469 C 71.460938 183.050781 71.460938 183.058594 71.453125 182.980469 Z M 71.378906 179.554688 C 71.335938 175.804688 70.335938 179.074219 78.234375 185.507812 C 86.761719 192.464844 94.125 194.671875 102.726562 203.671875 C 109.941406 211.238281 116.148438 218.726562 125.726562 222.769531 C 132.109375 225.464844 154.867188 229.035156 164.441406 224.78125 C 165.097656 224.492188 164.46875 224.59375 165.707031 225.617188 C 169.03125 228.359375 173.832031 226.351562 180.746094 225.800781 C 197.734375 224.695312 215.148438 219.773438 226.648438 207.03125 C 235.511719 197.234375 236.503906 184.433594 228.835938 215.148438 C 221.296875 245.273438 224.875 230.980469 218.476562 248.34375 C 217.613281 250.6875 216.832031 253.066406 216.246094 255.492188 C 203.242188 265.050781 210.957031 279.910156 202.132812 293.796875 C 200.308594 296.628906 197.789062 298.644531 194.394531 298.523438 C 191.566406 298.359375 192.261719 296.394531 188.203125 295.550781 C 182.269531 294.332031 176.183594 294.375 171.394531 292.246094 C 171.96875 291.230469 172.195312 290.601562 172.902344 289.691406 C 173.230469 289.269531 172.871094 288.652344 172.378906 288.617188 C 166.589844 288.226562 171.664062 288.753906 172.480469 285.394531 C 173.023438 283.179688 169.945312 279.398438 164.691406 280.285156 C 159.164062 281.234375 156.460938 286.660156 164.738281 288.878906 C 158.488281 290.894531 146.3125 292.835938 145.101562 292.949219 C 136.539062 293.453125 121.910156 287.480469 113.722656 281.382812 C 104.207031 256.179688 100.199219 243.621094 95.96875 229.242188 C 90.152344 209.464844 71.640625 202.304688 71.378906 179.554688 Z M 71.484375 174.917969 C 71.519531 175.015625 71.507812 174.996094 71.484375 174.917969 Z M 69.746094 171.433594 C 69.753906 171.558594 69.75 171.535156 69.746094 171.433594 Z M 254.6875 170.480469 C 254.699219 170.609375 254.695312 170.605469 254.6875 170.480469 Z M 254.683594 170.390625 C 254.6875 170.472656 254.683594 170.460938 254.683594 170.390625 Z M 60.253906 169.96875 C 60.195312 169.988281 60.195312 169.992188 60.253906 169.96875 Z M 246.910156 169.21875 C 246.890625 169.242188 246.871094 169.265625 246.847656 169.289062 Z M 51.863281 168.390625 L 51.898438 168.425781 Z M 252.496094 166.585938 C 252.570312 166.601562 252.554688 166.597656 252.496094 166.585938 Z M 252.402344 166.570312 C 258.042969 168.007812 251.882812 185.738281 249.941406 191.207031 C 247.175781 199.015625 247.097656 200.007812 248.066406 192.171875 C 248.195312 191.125 249.160156 185.332031 248.199219 184.683594 C 247.3125 184.085938 244.222656 186.433594 242.910156 188.027344 C 238.8125 192.996094 239.542969 201.730469 240.675781 208 C 241.875 214.664062 242.421875 211.457031 239.964844 218.734375 C 233.226562 238.691406 229.203125 245.738281 229.605469 244.960938 C 224.917969 254.257812 224.933594 249.726562 217.972656 254.300781 C 219.757812 247.910156 223.195312 240.464844 224.394531 237.328125 C 228.675781 226.191406 239.300781 164.429688 252.402344 166.570312 Z M 67.84375 166.476562 C 67.765625 166.527344 67.765625 166.527344 67.84375 166.476562 Z M 255.675781 158.707031 C 255.703125 158.785156 255.703125 158.785156 255.675781 158.707031 Z M 66.570312 153.878906 C 66.539062 154.011719 66.539062 154.011719 66.570312 153.878906 Z M 47.671875 153.636719 C 47.503906 153.753906 47.542969 153.71875 47.671875 153.636719 Z M 48.050781 153.429688 C 47.875 153.492188 47.917969 153.476562 48.050781 153.429688 Z M 49.882812 153.359375 C 50.03125 153.386719 50.058594 153.394531 49.882812 153.359375 Z M 48.757812 153.269531 C 48.605469 153.277344 48.644531 153.273438 48.757812 153.269531 Z M 59.117188 152.71875 C 59.101562 152.8125 59.09375 152.847656 59.117188 152.71875 Z M 60.003906 150.179688 C 59.933594 150.335938 59.894531 150.394531 60.003906 150.179688 Z M 63.253906 148.261719 C 66.078125 148.957031 67.886719 152.796875 65.523438 156.332031 C 64.855469 157.324219 63.304688 158.898438 61.957031 159.421875 C 60.261719 159.929688 59.292969 158.679688 58.515625 157.085938 C 58.972656 156.640625 58.464844 147.53125 63.253906 148.261719 Z M 256.421875 147.746094 C 256.394531 147.875 256.390625 147.902344 256.421875 147.746094 Z M 71.019531 141.542969 C 71.027344 141.679688 71.03125 141.761719 71.019531 141.542969 Z M 76.136719 138.519531 C 76.023438 138.527344 76.023438 138.527344 76.136719 138.519531 Z M 261.871094 137.671875 C 261.835938 137.71875 261.824219 137.726562 261.871094 137.671875 Z M 265.121094 133.910156 C 265.144531 133.882812 263.566406 141.957031 259.710938 140.28125 C 261.265625 138.210938 263.167969 136.339844 265.121094 133.910156 Z M 84.261719 132.8125 C 84.0625 132.882812 84.089844 132.871094 84.261719 132.8125 Z M 68.84375 132.464844 C 69.132812 133.210938 70.628906 137.289062 70.230469 136.964844 C 68.839844 135.667969 68.449219 133.941406 68.84375 132.464844 Z M 86.378906 131.269531 C 86.386719 131.269531 86.257812 131.398438 86.378906 131.269531 Z M 93.867188 130.582031 C 93.800781 130.585938 93.800781 130.585938 93.867188 130.582031 Z M 83.640625 128.460938 C 83.699219 128.511719 83.722656 128.539062 83.640625 128.460938 Z M 82.863281 127.578125 C 82.933594 127.671875 82.945312 127.695312 82.863281 127.578125 Z M 97.785156 125.761719 C 97.765625 125.851562 97.761719 125.863281 97.785156 125.761719 Z M 86.5625 124.710938 C 86.667969 124.804688 86.652344 124.792969 86.5625 124.710938 Z M 83.011719 124.550781 C 82.960938 124.648438 82.960938 124.648438 83.011719 124.550781 Z M 81.996094 123.5625 C 78.367188 129.90625 87.78125 131.6875 86.371094 131.269531 C 85.335938 132.527344 83.800781 133.242188 81.917969 133.136719 C 80.996094 133.089844 80.9375 134.460938 81.828125 134.507812 C 83.925781 134.628906 85.722656 133.957031 87.167969 132.441406 C 88.328125 131.21875 86.96875 131.667969 90.394531 131.9375 C 92.457031 132.097656 92.484375 131.863281 92.097656 132.136719 C 86.992188 135.53125 77.683594 140.136719 71.933594 137.960938 C 70.457031 130.027344 68.355469 131.6875 70.800781 128.824219 C 73.660156 125.734375 78.265625 123.953125 81.996094 123.5625 Z M 83.265625 124.109375 C 83.660156 123.429688 83.636719 123.523438 84.449219 123.679688 C 87.640625 124.46875 88.4375 127.234375 87.15625 130.050781 C 83.550781 129.121094 81.28125 127.226562 83.265625 124.109375 Z M 123.417969 121.355469 C 123.34375 121.359375 123.339844 121.359375 123.417969 121.355469 Z M 93.6875 120.917969 C 93.769531 120.933594 93.75 120.929688 93.6875 120.917969 Z M 266.070312 120.710938 C 266.351562 120.726562 266.675781 121.550781 266.785156 121.851562 C 266.113281 134.515625 265.066406 130.558594 258.328125 139.835938 C 259.046875 137.21875 263.699219 121.371094 266.070312 120.710938 Z M 266.199219 120.695312 C 266.136719 120.699219 266.171875 120.695312 266.199219 120.695312 Z M 92.113281 120.714844 C 98.050781 121 100.359375 125.421875 94.203125 130.554688 C 92.734375 130.691406 90.503906 130.648438 88.539062 130.335938 C 90 126.882812 88.609375 123.292969 85 122.394531 C 87.128906 121.0625 89.597656 120.59375 92.113281 120.714844 Z M 265.960938 120.679688 C 266.046875 120.6875 266.144531 120.714844 265.960938 120.679688 Z M 266.808594 111.917969 C 266.816406 112.050781 266.816406 112.050781 266.808594 111.917969 Z M 52.894531 110.667969 C 52.871094 110.804688 52.875 110.777344 52.894531 110.667969 Z M 62.449219 106.957031 C 62.566406 107.058594 62.578125 107.074219 62.449219 106.957031 Z M 54.640625 106.433594 C 54.589844 106.496094 54.570312 106.511719 54.640625 106.433594 Z M 55.398438 105.742188 C 55.261719 105.832031 55.292969 105.808594 55.398438 105.742188 Z M 58.65625 105.257812 C 62.785156 106.21875 63.660156 108.078125 64.046875 109.835938 C 65.082031 114.621094 61.847656 115.726562 66.863281 127.726562 C 68.425781 131.449219 68.089844 129.875 67.558594 131.929688 C 66.828125 134.757812 67.949219 137.515625 70.714844 138.921875 C 71.996094 146.835938 69.769531 155.289062 69.136719 163.5 C 68.984375 165.476562 69.308594 164.558594 68.1875 164.804688 C 66.394531 165.199219 64.238281 168.484375 60.292969 169.953125 C 50.417969 173.207031 44.050781 158.535156 46.804688 154.519531 C 48.953125 151.371094 53.355469 154.96875 56.890625 156.808594 C 61.113281 167.601562 72.351562 154.246094 65.960938 148.21875 C 62.824219 145.269531 58.277344 146.839844 57.488281 154.269531 C 55.769531 148.125 56.441406 145.664062 53.917969 131.15625 C 52.425781 122.4375 49.972656 103.636719 58.65625 105.257812 Z M 140.121094 101.992188 C 140.019531 102.058594 140.011719 102.0625 140.121094 101.992188 Z M 272.375 100.679688 C 274.230469 98.871094 273.074219 143.398438 261.625 156.679688 C 253 166.183594 254.777344 153.140625 258.070312 140.78125 C 258.394531 141.511719 264.554688 146.09375 267.191406 130.894531 C 268.972656 127.679688 269.105469 125.363281 268.3125 122.167969 C 268.023438 120.992188 269.007812 108.339844 267.097656 108.476562 C 268.75 105.558594 270.117188 102.941406 272.375 100.679688 Z M 143.585938 99.007812 C 143.550781 99.050781 143.546875 99.054688 143.585938 99.007812 Z M 143.675781 98.910156 C 143.5625 99.039062 143.59375 98.992188 143.675781 98.910156 Z M 182.242188 98.359375 C 182.125 98.371094 182.105469 98.367188 182.242188 98.359375 Z M 189.582031 96.71875 C 189.503906 96.726562 189.507812 96.726562 189.582031 96.71875 Z M 138.847656 96.253906 C 138.761719 96.257812 138.761719 96.257812 138.847656 96.253906 Z M 236.085938 77.023438 C 236.019531 77.097656 236.03125 77.078125 236.085938 77.023438 Z M 252.820312 58.84375 C 262.300781 53.847656 264.832031 53.355469 274.449219 40.972656 C 273.304688 52.445312 278.230469 63.261719 277.914062 74.335938 C 277.539062 88.089844 265.3125 92.625 262.515625 104.644531 C 261.605469 108.523438 262.816406 112.449219 263.28125 112.886719 C 259.058594 119.726562 257.804688 129.234375 254.890625 137.078125 C 253.402344 141.085938 248.214844 151.496094 244.59375 162.859375 C 233.050781 199.058594 227.789062 220.320312 179.605469 224.523438 C 173.597656 225.066406 168.691406 226.972656 166.179688 224.167969 C 165.847656 223.796875 167.789062 223.453125 169 221.972656 C 169.683594 221.136719 169.316406 219.78125 166.753906 219.898438 C 162.578125 220.097656 163.328125 221.835938 164.078125 223.441406 C 158.25 226.125 149.316406 225.539062 142.863281 224.867188 C 119.246094 222.421875 117.792969 216.554688 101.085938 200.027344 C 93.019531 192.039062 75.449219 185.726562 71.523438 175.023438 C 70.925781 173.179688 71.300781 169.132812 70.378906 166.421875 C 70.46875 159.9375 72.105469 153.261719 72.441406 146.03125 C 72.988281 133.984375 68.691406 143 81.890625 138.722656 C 85.613281 137.515625 91.210938 134.707031 94.773438 131.878906 C 109.617188 130.542969 105.15625 116.992188 110.011719 109.382812 C 114.414062 102.472656 133.824219 94.386719 145.195312 96.582031 C 145.109375 96.566406 145.335938 96.503906 144.542969 97.742188 C 140.007812 104.910156 125.796875 107.058594 120.882812 114.195312 C 119.441406 116.292969 117.476562 122.34375 122.464844 122.738281 C 131.460938 123.488281 146.398438 108.09375 164.074219 101.886719 C 171.71875 99.289062 178.921875 98.332031 186.9375 98.160156 C 200.507812 97.835938 201.832031 92.273438 210.347656 86.523438 C 219.3125 80.746094 223.214844 84.050781 230.816406 81.957031 C 239.683594 79.5 239.253906 71.789062 242.285156 66.90625 C 244.34375 63.625 249.433594 60.632812 252.820312 58.84375 Z M 276.203125 38.535156 C 276.183594 38.613281 276.183594 38.621094 276.203125 38.535156 Z M 278.304688 29.53125 C 277.457031 30.929688 276.769531 32.230469 276.03125 34.140625 C 274.898438 37.0625 275.359375 37.351562 274.453125 38.65625 C 258.683594 61.585938 244.597656 54.855469 239.054688 70.742188 C 234.503906 83.804688 227.742188 80.480469 218.324219 81.777344 C 209.375 83.007812 203.867188 91.183594 197.503906 94.578125 C 185.691406 100.847656 176.160156 88.984375 138.628906 114.347656 C 140.933594 112.832031 123.832031 124.386719 120.960938 120.65625 C 120.183594 119.289062 120.71875 115.601562 124.15625 112.628906 C 127.335938 109.859375 133.234375 107.523438 137.988281 104.898438 C 145.429688 100.777344 147.8125 95.816406 146.371094 95.460938 C 134.703125 92.539062 113.476562 100.855469 108.417969 109.347656 C 103.933594 116.851562 107.886719 128.042969 96.605469 130.222656 C 105.65625 120.808594 89.824219 115.71875 83.109375 122.148438 C 79.445312 122.070312 72.328125 124.183594 68.90625 129.019531 C 67.523438 125.757812 66.65625 123.835938 65.855469 120.640625 C 64.246094 114.183594 67.714844 108.847656 62.683594 105.445312 C 61.679688 104.769531 59.164062 103.628906 57.070312 103.777344 C 46.550781 104.539062 52.976562 131.628906 53.886719 138.445312 C 54.253906 141.199219 54.496094 148.046875 55.957031 153.878906 C 56.304688 155.257812 56.800781 155.125 54.09375 153.628906 C 38.882812 145.1875 44.316406 170.453125 56.429688 171.773438 C 61.972656 172.40625 65.820312 167.875 67.886719 166.445312 C 69.207031 165.625 68.949219 166.46875 69.058594 168.828125 C 69.324219 174.574219 69.925781 169.835938 70.019531 181.210938 C 70.199219 200.820312 87.839844 210.171875 94.199219 228.203125 C 95.652344 232.523438 93.402344 224.296875 83.804688 214.382812 C 83.503906 214.070312 83.089844 214.097656 82.835938 214.324219 C 82.53125 214.585938 82.515625 214.664062 82.835938 217.640625 C 84.542969 233.039062 95.273438 249.996094 94.945312 265.800781 C 87.789062 290.019531 66.890625 316.074219 67.902344 323.480469 C 66.539062 324.519531 66.082031 324.457031 66.042969 325.035156 C 65.949219 326.707031 87.859375 336.21875 90.351562 337.246094 C 102.074219 342.085938 109.988281 344.40625 112.984375 345.585938 C 115.183594 346.457031 117.929688 351.328125 125.253906 353.050781 C 127.40625 353.554688 126.902344 353.1875 127.851562 353.691406 C 157.835938 369.640625 210.441406 335.496094 252.144531 326.863281 C 275.0625 322.128906 284.578125 323.871094 292.941406 313.496094 C 309.386719 310.484375 305.777344 309.695312 307.5 300.144531 C 308.097656 297.496094 310.113281 295.664062 312.105469 293.738281 C 315.40625 290.53125 321.460938 281.480469 317.023438 278.722656 C 315.953125 278.050781 316.445312 278.867188 315.964844 277.5 C 315.71875 276.804688 314.441406 277.101562 314.703125 278.023438 C 311.753906 277.675781 307.089844 278.546875 303.875 278.992188 C 294.011719 280.375 264.472656 278.472656 265.101562 274.300781 C 271.222656 274.5 273.117188 277.414062 274.035156 276.964844 C 274.953125 276.496094 273.984375 274.234375 273.492188 273.335938 C 271.175781 269.085938 264.101562 264.507812 261.777344 269.410156 C 259.199219 269.351562 260.078125 270.414062 261.394531 267.613281 C 263.640625 262.796875 256.429688 252.394531 246.738281 224.714844 C 246.769531 224.796875 246.65625 224.472656 246.695312 224.582031 C 243.207031 214.503906 243.816406 215.375 244.222656 213.929688 C 246.878906 204.464844 245.566406 206.292969 247.835938 200.628906 C 250.832031 193.140625 256.640625 178.0625 256.023438 170.09375 C 255.535156 163.5625 248.699219 162.53125 243.0625 172.363281 C 253.480469 139.488281 253.785156 147.246094 259.402344 126.816406 C 261.027344 120.898438 262.703125 115.273438 266.46875 110.859375 C 267.085938 110.1875 266.917969 118.65625 266.886719 119.566406 C 263.519531 117.277344 259.335938 131.542969 258.082031 135.738281 C 255.898438 143.015625 250.371094 163.03125 257.714844 161.136719 C 270.652344 157.722656 275.109375 117.945312 274.242188 103.777344 C 273.851562 97.21875 273.167969 97.957031 271.132812 99.980469 C 268.285156 102.785156 266.347656 107.472656 263.988281 110.910156 C 261.339844 101.472656 271.25 93.417969 276.394531 84.839844 C 284.355469 71.519531 273.222656 54.367188 276.203125 38.519531 C 278.335938 35.261719 279.179688 32.699219 279.558594 29.964844 C 279.652344 29.300781 278.65625 28.933594 278.304688 29.53125 " fill-opacity="1" fill-rule="nonzero"/></g></svg>